<?xml version="1.0" encoding="UTF-8" standalone="no"?>
<!-- Created with Inkscape (http://www.inkscape.org/) -->

<svg
   xmlns:dc="http://purl.org/dc/elements/1.1/"
   xmlns:cc="http://creativecommons.org/ns#"
   xmlns:rdf="http://www.w3.org/1999/02/22-rdf-syntax-ns#"
   xmlns:svg="http://www.w3.org/2000/svg"
   xmlns="http://www.w3.org/2000/svg"
   xmlns:sodipodi="http://sodipodi.sourceforge.net/DTD/sodipodi-0.dtd"
   xmlns:inkscape="http://www.inkscape.org/namespaces/inkscape"
   width="112.00122mm"
   height="108.20318mm"
   viewBox="0 0 396.85472 383.39709"
   id="svg4244"
   version="1.1"
   inkscape:version="0.91 r13725"
   sodipodi:docname="figure2.svg">
  <defs
     id="defs4246" />
  <sodipodi:namedview
     id="base"
     pagecolor="#ffffff"
     bordercolor="#666666"
     borderopacity="1.0"
     inkscape:pageopacity="0.0"
     inkscape:pageshadow="2"
     inkscape:zoom="0.35"
     inkscape:cx="316.2845"
     inkscape:cy="-202.58717"
     inkscape:document-units="px"
     inkscape:current-layer="layer1"
     showgrid="false"
     fit-margin-top="0"
     fit-margin-left="0"
     fit-margin-right="0"
     fit-margin-bottom="0"
     inkscape:window-width="1920"
     inkscape:window-height="1016"
     inkscape:window-x="0"
     inkscape:window-y="27"
     inkscape:window-maximized="1" />
  <metadata
     id="metadata4249">
    <rdf:RDF>
      <cc:Work
         rdf:about="">
        <dc:format>image/svg+xml</dc:format>
        <dc:type
           rdf:resource="http://purl.org/dc/dcmitype/StillImage" />
        <dc:title></dc:title>
      </cc:Work>
    </rdf:RDF>
  </metadata>
  <g
     inkscape:label="Layer 1"
     inkscape:groupmode="layer"
     id="layer1"
     transform="translate(-58.7155,53.622058)">
    <text
       id="text198-6"
       style="font-variant:normal;font-weight:normal;font-size:15px;font-family:Helvetica;-inkscape-font-specification:Helvetica;writing-mode:lr-tb;fill:#000000;fill-opacity:1;fill-rule:nonzero;stroke:none"
       transform="matrix(0,-1,1,0,0,0)"
       x="-88.69368"
       y="455.22522">
      <tspan
         y="455.22522"
         x="-88.69368"
         id="tspan200-5"
         sodipodi:role="line">shannon index</tspan>
    </text>
    <g
       id="g8693"
       transform="matrix(1.25,0,0,-1.25,-150.83711,-107.94681)">
      <path
         inkscape:connector-curvature="0"
         id="path74-8"
         style="fill:none;stroke:#ebebeb;stroke-width:1.0704;stroke-linecap:butt;stroke-linejoin:round;stroke-miterlimit:10;stroke-dasharray:none;stroke-opacity:1"
         d="m 201.70558,-202.0478 241.61,0" />
      <path
         inkscape:connector-curvature="0"
         id="path80-9"
         style="fill:none;stroke:#ebebeb;stroke-width:1.0704;stroke-linecap:butt;stroke-linejoin:round;stroke-miterlimit:10;stroke-dasharray:none;stroke-opacity:1"
         d="m 321.46558,-293.9878 0,228.629998" />
      <path
         inkscape:connector-curvature="0"
         id="path84-7"
         style="fill:#000000;fill-opacity:1;fill-rule:nonzero;stroke:none;stroke-width:1.0704;stroke-linecap:round;stroke-linejoin:round;stroke-miterlimit:10;stroke-dasharray:none;stroke-opacity:0.8"
         d="m 338.03558,-89.757802 c 0,2.55 2.08,4.63 4.62,4.63 2.54,0 4.62,-2.08 4.62,-4.63 0,-2.54 -2.08,-4.62 -4.62,-4.62 -2.54,0 -4.62,2.08 -4.62,4.62" />
      <path
         inkscape:connector-curvature="0"
         id="path86-6"
         style="fill:#00c094;fill-opacity:1;fill-rule:nonzero;stroke:none;stroke-width:1.0704;stroke-linecap:round;stroke-linejoin:round;stroke-miterlimit:10;stroke-dasharray:none;stroke-opacity:0.8"
         d="m 230.31558,-223.5278 c 0,2.55 2.08,4.63 4.62,4.63 2.54,0 4.62,-2.08 4.62,-4.63 0,-2.54 -2.08,-4.62 -4.62,-4.62 -2.54,0 -4.62,2.08 -4.62,4.62" />
      <path
         inkscape:connector-curvature="0"
         id="path88-4"
         style="fill:#00c094;fill-opacity:1;fill-rule:nonzero;stroke:none;stroke-width:1.0704;stroke-linecap:round;stroke-linejoin:round;stroke-miterlimit:10;stroke-dasharray:none;stroke-opacity:0.8"
         d="m 224.21558,-211.6278 c 0,2.55 2.08,4.63 4.62,4.63 2.54,0 4.62,-2.08 4.62,-4.63 0,-2.54 -2.08,-4.62 -4.62,-4.62 -2.54,0 -4.62,2.08 -4.62,4.62" />
      <path
         inkscape:connector-curvature="0"
         id="path90-3"
         style="fill:#7f7f7f;fill-opacity:1;fill-rule:nonzero;stroke:none;stroke-width:1.0704;stroke-linecap:round;stroke-linejoin:round;stroke-miterlimit:10;stroke-dasharray:none;stroke-opacity:0.8"
         d="m 285.06558,-195.1378 c 0,2.55 2.08,4.63 4.62,4.63 2.54,0 4.62,-2.08 4.62,-4.63 0,-2.54 -2.08,-4.62 -4.62,-4.62 -2.54,0 -4.62,2.08 -4.62,4.62" />
      <path
         inkscape:connector-curvature="0"
         id="path92-0"
         style="fill:#00c094;fill-opacity:1;fill-rule:nonzero;stroke:none;stroke-width:1.0704;stroke-linecap:round;stroke-linejoin:round;stroke-miterlimit:10;stroke-dasharray:none;stroke-opacity:0.8"
         d="m 292.58558,-264.3078 c 0,2.54 2.08,4.62 4.62,4.62 2.55,0 4.63,-2.08 4.63,-4.62 0,-2.54 -2.08,-4.62 -4.63,-4.62 -2.54,0 -4.62,2.08 -4.62,4.62" />
      <path
         inkscape:connector-curvature="0"
         id="path94-3"
         style="fill:#000000;fill-opacity:1;fill-rule:nonzero;stroke:none;stroke-width:1.0704;stroke-linecap:round;stroke-linejoin:round;stroke-miterlimit:10;stroke-dasharray:none;stroke-opacity:0.8"
         d="m 291.66558,-119.8078 c 0,2.54 2.08,4.62 4.63,4.62 2.54,0 4.62,-2.08 4.62,-4.62 0,-2.54 -2.08,-4.62 -4.62,-4.62 -2.55,0 -4.63,2.08 -4.63,4.62" />
      <path
         inkscape:connector-curvature="0"
         id="path96-0"
         style="fill:#7f7f7f;fill-opacity:1;fill-rule:nonzero;stroke:none;stroke-width:1.0704;stroke-linecap:round;stroke-linejoin:round;stroke-miterlimit:10;stroke-dasharray:none;stroke-opacity:0.8"
         d="m 320.73558,-207.0078 c 0,2.54 2.08,4.62 4.63,4.62 2.54,0 4.62,-2.08 4.62,-4.62 0,-2.54 -2.08,-4.62 -4.62,-4.62 -2.55,0 -4.63,2.08 -4.63,4.62" />
      <path
         inkscape:connector-curvature="0"
         id="path98-9"
         style="fill:#000000;fill-opacity:1;fill-rule:nonzero;stroke:none;stroke-width:1.0704;stroke-linecap:round;stroke-linejoin:round;stroke-miterlimit:10;stroke-dasharray:none;stroke-opacity:0.8"
         d="m 257.99558,-116.8378 c 0,2.54 2.08,4.62 4.62,4.62 2.55,0 4.63,-2.08 4.63,-4.62 0,-2.54 -2.08,-4.62 -4.63,-4.62 -2.54,0 -4.62,2.08 -4.62,4.62" />
      <path
         inkscape:connector-curvature="0"
         id="path100-2"
         style="fill:#7f7f7f;fill-opacity:1;fill-rule:nonzero;stroke:none;stroke-width:1.0704;stroke-linecap:round;stroke-linejoin:round;stroke-miterlimit:10;stroke-dasharray:none;stroke-opacity:0.8"
         d="m 379.96558,-233.2278 c 0,2.54 2.08,4.62 4.62,4.62 2.55,0 4.63,-2.08 4.63,-4.62 0,-2.55 -2.08,-4.63 -4.63,-4.63 -2.54,0 -4.62,2.08 -4.62,4.63" />
      <path
         inkscape:connector-curvature="0"
         id="path102-5"
         style="fill:#7f7f7f;fill-opacity:1;fill-rule:nonzero;stroke:none;stroke-width:1.0704;stroke-linecap:round;stroke-linejoin:round;stroke-miterlimit:10;stroke-dasharray:none;stroke-opacity:0.8"
         d="m 395.70558,-215.4378 c 0,2.54 2.08,4.62 4.63,4.62 2.54,0 4.62,-2.08 4.62,-4.62 0,-2.54 -2.08,-4.62 -4.62,-4.62 -2.55,0 -4.63,2.08 -4.63,4.62" />
      <path
         inkscape:connector-curvature="0"
         id="path104-4"
         style="fill:#000000;fill-opacity:1;fill-rule:nonzero;stroke:none;stroke-width:1.0704;stroke-linecap:round;stroke-linejoin:round;stroke-miterlimit:10;stroke-dasharray:none;stroke-opacity:0.8"
         d="m 332.64558,-172.8978 c 0,2.54 2.08,4.62 4.62,4.62 2.54,0 4.62,-2.08 4.62,-4.62 0,-2.54 -2.08,-4.62 -4.62,-4.62 -2.54,0 -4.62,2.08 -4.62,4.62" />
      <path
         inkscape:connector-curvature="0"
         id="path106-0"
         style="fill:#000000;fill-opacity:1;fill-rule:nonzero;stroke:none;stroke-width:1.0704;stroke-linecap:round;stroke-linejoin:round;stroke-miterlimit:10;stroke-dasharray:none;stroke-opacity:0.8"
         d="m 396.46558,-108.9478 c 0,2.54 2.08,4.62 4.63,4.62 2.54,0 4.62,-2.08 4.62,-4.62 0,-2.55 -2.08,-4.63 -4.62,-4.63 -2.55,0 -4.63,2.08 -4.63,4.63" />
      <path
         inkscape:connector-curvature="0"
         id="path108-5"
         style="fill:#00c094;fill-opacity:1;fill-rule:nonzero;stroke:none;stroke-width:1.0704;stroke-linecap:round;stroke-linejoin:round;stroke-miterlimit:10;stroke-dasharray:none;stroke-opacity:0.8"
         d="m 208.06558,-214.5378 c 0,2.55 2.08,4.63 4.62,4.63 2.54,0 4.62,-2.08 4.62,-4.63 0,-2.54 -2.08,-4.62 -4.62,-4.62 -2.54,0 -4.62,2.08 -4.62,4.62" />
      <path
         inkscape:connector-curvature="0"
         id="path110-9"
         style="fill:#000000;fill-opacity:1;fill-rule:nonzero;stroke:none;stroke-width:1.0704;stroke-linecap:round;stroke-linejoin:round;stroke-miterlimit:10;stroke-dasharray:none;stroke-opacity:0.8"
         d="m 329.87558,-97.777802 c 0,2.54 2.08,4.62 4.62,4.62 2.54,0 4.62,-2.08 4.62,-4.62 0,-2.539998 -2.08,-4.619998 -4.62,-4.619998 -2.54,0 -4.62,2.08 -4.62,4.619998" />
      <path
         inkscape:connector-curvature="0"
         id="path112-4"
         style="fill:#00c094;fill-opacity:1;fill-rule:nonzero;stroke:none;stroke-width:1.0704;stroke-linecap:round;stroke-linejoin:round;stroke-miterlimit:10;stroke-dasharray:none;stroke-opacity:0.8"
         d="m 256.35558,-242.1978 c 0,2.54 2.08,4.62 4.62,4.62 2.55,0 4.63,-2.08 4.63,-4.62 0,-2.55 -2.08,-4.63 -4.63,-4.63 -2.54,0 -4.62,2.08 -4.62,4.63" />
      <path
         inkscape:connector-curvature="0"
         id="path114-6"
         style="fill:#00c094;fill-opacity:1;fill-rule:nonzero;stroke:none;stroke-width:1.0704;stroke-linecap:round;stroke-linejoin:round;stroke-miterlimit:10;stroke-dasharray:none;stroke-opacity:0.8"
         d="m 255.21558,-212.4978 c 0,2.55 2.08,4.63 4.63,4.63 2.54,0 4.62,-2.08 4.62,-4.63 0,-2.54 -2.08,-4.62 -4.62,-4.62 -2.55,0 -4.63,2.08 -4.63,4.62" />
      <path
         inkscape:connector-curvature="0"
         id="path116-9"
         style="fill:#00c094;fill-opacity:1;fill-rule:nonzero;stroke:none;stroke-width:1.0704;stroke-linecap:round;stroke-linejoin:round;stroke-miterlimit:10;stroke-dasharray:none;stroke-opacity:0.8"
         d="m 268.13558,-264.9578 c 0,2.54 2.08,4.62 4.62,4.62 2.54,0 4.62,-2.08 4.62,-4.62 0,-2.54 -2.08,-4.62 -4.62,-4.62 -2.54,0 -4.62,2.08 -4.62,4.62" />
      <path
         inkscape:connector-curvature="0"
         id="path118-2"
         style="fill:#7f7f7f;fill-opacity:1;fill-rule:nonzero;stroke:none;stroke-width:1.0704;stroke-linecap:round;stroke-linejoin:round;stroke-miterlimit:10;stroke-dasharray:none;stroke-opacity:0.8"
         d="m 324.18558,-204.1478 c 0,2.54 2.08,4.62 4.63,4.62 2.54,0 4.62,-2.08 4.62,-4.62 0,-2.54 -2.08,-4.62 -4.62,-4.62 -2.55,0 -4.63,2.08 -4.63,4.62" />
      <path
         inkscape:connector-curvature="0"
         id="path120-2"
         style="fill:#7f7f7f;fill-opacity:1;fill-rule:nonzero;stroke:none;stroke-width:1.0704;stroke-linecap:round;stroke-linejoin:round;stroke-miterlimit:10;stroke-dasharray:none;stroke-opacity:0.8"
         d="m 316.66558,-266.1478 c 0,2.54 2.08,4.62 4.62,4.62 2.54,0 4.62,-2.08 4.62,-4.62 0,-2.54 -2.08,-4.62 -4.62,-4.62 -2.54,0 -4.62,2.08 -4.62,4.62" />
      <path
         inkscape:connector-curvature="0"
         id="path122-4"
         style="fill:#00c094;fill-opacity:1;fill-rule:nonzero;stroke:none;stroke-width:1.0704;stroke-linecap:round;stroke-linejoin:round;stroke-miterlimit:10;stroke-dasharray:none;stroke-opacity:0.8"
         d="m 227.80558,-201.6978 c 0,2.54 2.08,4.62 4.62,4.62 2.54,0 4.62,-2.08 4.62,-4.62 0,-2.54 -2.08,-4.62 -4.62,-4.62 -2.54,0 -4.62,2.08 -4.62,4.62" />
      <path
         inkscape:connector-curvature="0"
         id="path124-7"
         style="fill:#00c094;fill-opacity:1;fill-rule:nonzero;stroke:none;stroke-width:1.0704;stroke-linecap:round;stroke-linejoin:round;stroke-miterlimit:10;stroke-dasharray:none;stroke-opacity:0.8"
         d="m 260.42558,-209.5678 c 0,2.54 2.08,4.62 4.63,4.62 2.54,0 4.62,-2.08 4.62,-4.62 0,-2.54 -2.08,-4.62 -4.62,-4.62 -2.55,0 -4.63,2.08 -4.63,4.62" />
      <path
         inkscape:connector-curvature="0"
         id="path126-7"
         style="fill:#00c094;fill-opacity:1;fill-rule:nonzero;stroke:none;stroke-width:1.0704;stroke-linecap:round;stroke-linejoin:round;stroke-miterlimit:10;stroke-dasharray:none;stroke-opacity:0.8"
         d="m 236.56558,-258.0678 c 0,2.54 2.08,4.62 4.62,4.62 2.54,0 4.62,-2.08 4.62,-4.62 0,-2.54 -2.08,-4.62 -4.62,-4.62 -2.54,0 -4.62,2.08 -4.62,4.62" />
      <path
         inkscape:connector-curvature="0"
         id="path128-5"
         style="fill:#00c094;fill-opacity:1;fill-rule:nonzero;stroke:none;stroke-width:1.0704;stroke-linecap:round;stroke-linejoin:round;stroke-miterlimit:10;stroke-dasharray:none;stroke-opacity:0.8"
         d="m 272.89558,-241.2878 c 0,2.54 2.08,4.62 4.62,4.62 2.54,0 4.62,-2.08 4.62,-4.62 0,-2.54 -2.08,-4.62 -4.62,-4.62 -2.54,0 -4.62,2.08 -4.62,4.62" />
      <path
         inkscape:connector-curvature="0"
         id="path130-4"
         style="fill:#00c094;fill-opacity:1;fill-rule:nonzero;stroke:none;stroke-width:1.0704;stroke-linecap:round;stroke-linejoin:round;stroke-miterlimit:10;stroke-dasharray:none;stroke-opacity:0.8"
         d="m 229.85558,-182.1178 c 0,2.54 2.08,4.62 4.62,4.62 2.55,0 4.63,-2.08 4.63,-4.62 0,-2.55 -2.08,-4.63 -4.63,-4.63 -2.54,0 -4.62,2.08 -4.62,4.63" />
      <path
         inkscape:connector-curvature="0"
         id="path132-8"
         style="fill:#000000;fill-opacity:1;fill-rule:nonzero;stroke:none;stroke-width:1.0704;stroke-linecap:round;stroke-linejoin:round;stroke-miterlimit:10;stroke-dasharray:none;stroke-opacity:0.8"
         d="m 294.94558,-107.2378 c 0,2.55 2.08,4.63 4.63,4.63 2.54,0 4.62,-2.08 4.62,-4.63 0,-2.54 -2.08,-4.62 -4.62,-4.62 -2.55,0 -4.63,2.08 -4.63,4.62" />
      <path
         inkscape:connector-curvature="0"
         id="path134-1"
         style="fill:#7f7f7f;fill-opacity:1;fill-rule:nonzero;stroke:none;stroke-width:1.0704;stroke-linecap:round;stroke-linejoin:round;stroke-miterlimit:10;stroke-dasharray:none;stroke-opacity:0.8"
         d="m 366.67558,-189.4978 c 0,2.54 2.08,4.62 4.63,4.62 2.54,0 4.62,-2.08 4.62,-4.62 0,-2.55 -2.08,-4.63 -4.62,-4.63 -2.55,0 -4.63,2.08 -4.63,4.63" />
      <path
         inkscape:connector-curvature="0"
         id="path136-2"
         style="fill:#7f7f7f;fill-opacity:1;fill-rule:nonzero;stroke:none;stroke-width:1.0704;stroke-linecap:round;stroke-linejoin:round;stroke-miterlimit:10;stroke-dasharray:none;stroke-opacity:0.8"
         d="m 376.53558,-192.1978 c 0,2.54 2.08,4.62 4.62,4.62 2.54,0 4.62,-2.08 4.62,-4.62 0,-2.54 -2.08,-4.62 -4.62,-4.62 -2.54,0 -4.62,2.08 -4.62,4.62" />
      <path
         inkscape:connector-curvature="0"
         id="path138-8"
         style="fill:#7f7f7f;fill-opacity:1;fill-rule:nonzero;stroke:none;stroke-width:1.0704;stroke-linecap:round;stroke-linejoin:round;stroke-miterlimit:10;stroke-dasharray:none;stroke-opacity:0.8"
         d="m 427.47558,-192.1778 c 0,2.55 2.08,4.63 4.62,4.63 2.55,0 4.63,-2.08 4.63,-4.63 0,-2.54 -2.08,-4.62 -4.63,-4.62 -2.54,0 -4.62,2.08 -4.62,4.62" />
      <path
         inkscape:connector-curvature="0"
         id="path140-9"
         style="fill:#7f7f7f;fill-opacity:1;fill-rule:nonzero;stroke:none;stroke-width:1.0704;stroke-linecap:round;stroke-linejoin:round;stroke-miterlimit:10;stroke-dasharray:none;stroke-opacity:0.8"
         d="m 340.62558,-247.2778 c 0,2.54 2.08,4.62 4.62,4.62 2.54,0 4.62,-2.08 4.62,-4.62 0,-2.54 -2.08,-4.62 -4.62,-4.62 -2.54,0 -4.62,2.08 -4.62,4.62" />
      <path
         inkscape:connector-curvature="0"
         id="path142-3"
         style="fill:#00c094;fill-opacity:1;fill-rule:nonzero;stroke:none;stroke-width:1.0704;stroke-linecap:round;stroke-linejoin:round;stroke-miterlimit:10;stroke-dasharray:none;stroke-opacity:0.8"
         d="m 325.24558,-178.2778 c 0,2.54 2.08,4.62 4.63,4.62 2.54,0 4.62,-2.08 4.62,-4.62 0,-2.54 -2.08,-4.62 -4.62,-4.62 -2.55,0 -4.63,2.08 -4.63,4.62" />
      <path
         inkscape:connector-curvature="0"
         id="path144-6"
         style="fill:#7f7f7f;fill-opacity:1;fill-rule:nonzero;stroke:none;stroke-width:1.0704;stroke-linecap:round;stroke-linejoin:round;stroke-miterlimit:10;stroke-dasharray:none;stroke-opacity:0.8"
         d="m 411.65558,-197.0378 c 0,2.54 2.08,4.62 4.62,4.62 2.54,0 4.62,-2.08 4.62,-4.62 0,-2.55 -2.08,-4.63 -4.62,-4.63 -2.54,0 -4.62,2.08 -4.62,4.63" />
      <path
         inkscape:connector-curvature="0"
         id="path146-8"
         style="fill:#7f7f7f;fill-opacity:1;fill-rule:nonzero;stroke:none;stroke-width:1.0704;stroke-linecap:round;stroke-linejoin:round;stroke-miterlimit:10;stroke-dasharray:none;stroke-opacity:0.8"
         d="m 309.11558,-270.1778 c 0,2.55 2.08,4.63 4.62,4.63 2.55,0 4.63,-2.08 4.63,-4.63 0,-2.54 -2.08,-4.62 -4.63,-4.62 -2.54,0 -4.62,2.08 -4.62,4.62" />
      <path
         inkscape:connector-curvature="0"
         id="path148-0"
         style="fill:#7f7f7f;fill-opacity:1;fill-rule:nonzero;stroke:none;stroke-width:1.0704;stroke-linecap:round;stroke-linejoin:round;stroke-miterlimit:10;stroke-dasharray:none;stroke-opacity:0.8"
         d="m 391.13558,-179.8478 c 0,2.55 2.08,4.63 4.62,4.63 2.55,0 4.63,-2.08 4.63,-4.63 0,-2.54 -2.08,-4.62 -4.63,-4.62 -2.54,0 -4.62,2.08 -4.62,4.62" />
      <path
         inkscape:connector-curvature="0"
         id="path150-2"
         style="fill:#7f7f7f;fill-opacity:1;fill-rule:nonzero;stroke:none;stroke-width:1.0704;stroke-linecap:round;stroke-linejoin:round;stroke-miterlimit:10;stroke-dasharray:none;stroke-opacity:0.8"
         d="m 419.46558,-264.8178 c 0,2.54 2.08,4.62 4.62,4.62 2.54,0 4.62,-2.08 4.62,-4.62 0,-2.54 -2.08,-4.62 -4.62,-4.62 -2.54,0 -4.62,2.08 -4.62,4.62" />
      <path
         inkscape:connector-curvature="0"
         id="path152-1"
         style="fill:#7f7f7f;fill-opacity:1;fill-rule:nonzero;stroke:none;stroke-width:1.0704;stroke-linecap:round;stroke-linejoin:round;stroke-miterlimit:10;stroke-dasharray:none;stroke-opacity:0.8"
         d="m 403.53558,-283.5978 c 0,2.54 2.08,4.62 4.62,4.62 2.54,0 4.62,-2.08 4.62,-4.62 0,-2.54 -2.08,-4.62 -4.62,-4.62 -2.54,0 -4.62,2.08 -4.62,4.62" />
      <path
         inkscape:connector-curvature="0"
         id="path154-0"
         style="fill:#7f7f7f;fill-opacity:1;fill-rule:nonzero;stroke:none;stroke-width:1.0704;stroke-linecap:round;stroke-linejoin:round;stroke-miterlimit:10;stroke-dasharray:none;stroke-opacity:0.8"
         d="m 327.02558,-278.1378 c 0,2.54 2.08,4.62 4.63,4.62 2.54,0 4.62,-2.08 4.62,-4.62 0,-2.54 -2.08,-4.62 -4.62,-4.62 -2.55,0 -4.63,2.08 -4.63,4.62" />
      <path
         inkscape:connector-curvature="0"
         id="path156-51"
         style="fill:#00c094;fill-opacity:1;fill-rule:nonzero;stroke:none;stroke-width:1.0704;stroke-linecap:round;stroke-linejoin:round;stroke-miterlimit:10;stroke-dasharray:none;stroke-opacity:0.8"
         d="m 271.26558,-248.7078 c 0,2.54 2.08,4.62 4.62,4.62 2.54,0 4.62,-2.08 4.62,-4.62 0,-2.55 -2.08,-4.63 -4.62,-4.63 -2.54,0 -4.62,2.08 -4.62,4.63" />
      <path
         inkscape:connector-curvature="0"
         id="path158-1"
         style="fill:#7f7f7f;fill-opacity:1;fill-rule:nonzero;stroke:none;stroke-width:1.0704;stroke-linecap:round;stroke-linejoin:round;stroke-miterlimit:10;stroke-dasharray:none;stroke-opacity:0.8"
         d="m 336.88558,-252.4078 c 0,2.54 2.08,4.62 4.62,4.62 2.54,0 4.62,-2.08 4.62,-4.62 0,-2.55 -2.08,-4.63 -4.62,-4.63 -2.54,0 -4.62,2.08 -4.62,4.63" />
      <path
         inkscape:connector-curvature="0"
         id="path160-0"
         style="fill:#000000;fill-opacity:1;fill-rule:nonzero;stroke:none;stroke-width:1.0704;stroke-linecap:round;stroke-linejoin:round;stroke-miterlimit:10;stroke-dasharray:none;stroke-opacity:0.8"
         d="m 336.65558,-189.8578 c 0,2.54 2.08,4.62 4.62,4.62 2.54,0 4.62,-2.08 4.62,-4.62 0,-2.54 -2.08,-4.62 -4.62,-4.62 -2.54,0 -4.62,2.08 -4.62,4.62" />
      <path
         inkscape:connector-curvature="0"
         id="path162-8"
         style="fill:#7f7f7f;fill-opacity:1;fill-rule:nonzero;stroke:none;stroke-width:1.0704;stroke-linecap:round;stroke-linejoin:round;stroke-miterlimit:10;stroke-dasharray:none;stroke-opacity:0.8"
         d="m 427.70558,-269.8278 c 0,2.55 2.08,4.63 4.62,4.63 2.55,0 4.63,-2.08 4.63,-4.63 0,-2.54 -2.08,-4.62 -4.63,-4.62 -2.54,0 -4.62,2.08 -4.62,4.62" />
      <path
         inkscape:connector-curvature="0"
         id="path164-5"
         style="fill:#7f7f7f;fill-opacity:1;fill-rule:nonzero;stroke:none;stroke-width:1.0704;stroke-linecap:round;stroke-linejoin:round;stroke-miterlimit:10;stroke-dasharray:none;stroke-opacity:0.8"
         d="m 388.96558,-230.4978 c 0,2.54 2.08,4.62 4.62,4.62 2.55,0 4.63,-2.08 4.63,-4.62 0,-2.55 -2.08,-4.63 -4.63,-4.63 -2.54,0 -4.62,2.08 -4.62,4.63" />
      <path
         inkscape:connector-curvature="0"
         id="path166-06"
         style="fill:#7f7f7f;fill-opacity:1;fill-rule:nonzero;stroke:none;stroke-width:1.0704;stroke-linecap:round;stroke-linejoin:round;stroke-miterlimit:10;stroke-dasharray:none;stroke-opacity:0.8"
         d="m 379.11558,-254.6178 c 0,2.54 2.08,4.62 4.62,4.62 2.54,0 4.62,-2.08 4.62,-4.62 0,-2.55 -2.08,-4.63 -4.62,-4.63 -2.54,0 -4.62,2.08 -4.62,4.63" />
      <path
         inkscape:connector-curvature="0"
         id="path168-4"
         style="fill:#000000;fill-opacity:1;fill-rule:nonzero;stroke:none;stroke-width:1.0704;stroke-linecap:round;stroke-linejoin:round;stroke-miterlimit:10;stroke-dasharray:none;stroke-opacity:0.8"
         d="m 366.00558,-75.747802 c 0,2.54 2.08,4.62 4.62,4.62 2.54,0 4.62,-2.08 4.62,-4.62 0,-2.55 -2.08,-4.63 -4.62,-4.63 -2.54,0 -4.62,2.08 -4.62,4.63" />
      <path
         inkscape:connector-curvature="0"
         id="path170-6"
         style="fill:#7f7f7f;fill-opacity:1;fill-rule:nonzero;stroke:none;stroke-width:1.0704;stroke-linecap:round;stroke-linejoin:round;stroke-miterlimit:10;stroke-dasharray:none;stroke-opacity:0.8"
         d="m 379.13558,-236.6378 c 0,2.55 2.08,4.63 4.62,4.63 2.54,0 4.62,-2.08 4.62,-4.63 0,-2.54 -2.08,-4.62 -4.62,-4.62 -2.54,0 -4.62,2.08 -4.62,4.62" />
      <path
         inkscape:connector-curvature="0"
         id="path172"
         style="fill:#000000;fill-opacity:1;fill-rule:nonzero;stroke:none;stroke-width:1.0704;stroke-linecap:round;stroke-linejoin:round;stroke-miterlimit:10;stroke-dasharray:none;stroke-opacity:0.8"
         d="m 292.38558,-86.967802 c 0,2.54 2.08,4.62 4.62,4.62 2.54,0 4.62,-2.08 4.62,-4.62 0,-2.54 -2.08,-4.62 -4.62,-4.62 -2.54,0 -4.62,2.08 -4.62,4.62" />
      <path
         inkscape:connector-curvature="0"
         id="path174-2"
         style="fill:#00c094;fill-opacity:1;fill-rule:nonzero;stroke:none;stroke-width:1.0704;stroke-linecap:round;stroke-linejoin:round;stroke-miterlimit:10;stroke-dasharray:none;stroke-opacity:0.8"
         d="m 237.67558,-218.7778 c 0,2.54 2.08,4.62 4.62,4.62 2.55,0 4.63,-2.08 4.63,-4.62 0,-2.55 -2.08,-4.63 -4.63,-4.63 -2.54,0 -4.62,2.08 -4.62,4.63" />
      <path
         inkscape:connector-curvature="0"
         id="path176-5"
         style="fill:#000000;fill-opacity:1;fill-rule:nonzero;stroke:none;stroke-width:1.0704;stroke-linecap:round;stroke-linejoin:round;stroke-miterlimit:10;stroke-dasharray:none;stroke-opacity:0.8"
         d="m 281.53558,-117.0478 c 0,2.54 2.08,4.62 4.62,4.62 2.55,0 4.63,-2.08 4.63,-4.62 0,-2.55 -2.08,-4.63 -4.63,-4.63 -2.54,0 -4.62,2.08 -4.62,4.63" />
      <path
         inkscape:connector-curvature="0"
         id="path178-8"
         style="fill:#000000;fill-opacity:1;fill-rule:nonzero;stroke:none;stroke-width:1.0704;stroke-linecap:round;stroke-linejoin:round;stroke-miterlimit:10;stroke-dasharray:none;stroke-opacity:0.8"
         d="m 333.92558,-142.8078 c 0,2.54 2.08,4.62 4.63,4.62 2.54,0 4.62,-2.08 4.62,-4.62 0,-2.54 -2.08,-4.62 -4.62,-4.62 -2.55,0 -4.63,2.08 -4.63,4.62" />
      <path
         inkscape:connector-curvature="0"
         id="path180"
         style="fill:#00c094;fill-opacity:1;fill-rule:nonzero;stroke:none;stroke-width:1.0704;stroke-linecap:round;stroke-linejoin:round;stroke-miterlimit:10;stroke-dasharray:none;stroke-opacity:0.8"
         d="m 226.74558,-272.8678 c 0,2.54 2.08,4.62 4.63,4.62 2.54,0 4.62,-2.08 4.62,-4.62 0,-2.55 -2.08,-4.63 -4.62,-4.63 -2.55,0 -4.63,2.08 -4.63,4.63" />
      <path
         inkscape:connector-curvature="0"
         id="path182"
         style="fill:#000000;fill-opacity:1;fill-rule:nonzero;stroke:none;stroke-width:1.0704;stroke-linecap:round;stroke-linejoin:round;stroke-miterlimit:10;stroke-dasharray:none;stroke-opacity:0.8"
         d="m 320.95558,-95.007802 c 0,2.55 2.08,4.63 4.62,4.63 2.55,0 4.63,-2.08 4.63,-4.63 0,-2.54 -2.08,-4.62 -4.63,-4.62 -2.54,0 -4.62,2.08 -4.62,4.62" />
      <path
         inkscape:connector-curvature="0"
         id="path184"
         style="fill:#00c094;fill-opacity:1;fill-rule:nonzero;stroke:none;stroke-width:1.0704;stroke-linecap:round;stroke-linejoin:round;stroke-miterlimit:10;stroke-dasharray:none;stroke-opacity:0.8"
         d="m 297.42558,-222.6378 c 0,2.54 2.08,4.62 4.62,4.62 2.54,0 4.62,-2.08 4.62,-4.62 0,-2.54 -2.08,-4.62 -4.62,-4.62 -2.54,0 -4.62,2.08 -4.62,4.62" />
      <path
         inkscape:connector-curvature="0"
         id="path186"
         style="fill:#00c094;fill-opacity:1;fill-rule:nonzero;stroke:none;stroke-width:1.0704;stroke-linecap:round;stroke-linejoin:round;stroke-miterlimit:10;stroke-dasharray:none;stroke-opacity:0.8"
         d="m 255.89558,-247.0578 c 0,2.54 2.08,4.62 4.62,4.62 2.54,0 4.62,-2.08 4.62,-4.62 0,-2.54 -2.08,-4.62 -4.62,-4.62 -2.54,0 -4.62,2.08 -4.62,4.62" />
      <path
         inkscape:connector-curvature="0"
         id="path188"
         style="fill:#000000;fill-opacity:1;fill-rule:nonzero;stroke:none;stroke-width:1.0704;stroke-linecap:round;stroke-linejoin:round;stroke-miterlimit:10;stroke-dasharray:none;stroke-opacity:0.8"
         d="m 309.35558,-197.4078 c 0,2.54 2.08,4.62 4.63,4.62 2.54,0 4.62,-2.08 4.62,-4.62 0,-2.55 -2.08,-4.63 -4.62,-4.63 -2.55,0 -4.63,2.08 -4.63,4.63" />
      <path
         inkscape:connector-curvature="0"
         id="path190"
         style="fill:#7f7f7f;fill-opacity:1;fill-rule:nonzero;stroke:none;stroke-width:1.0704;stroke-linecap:round;stroke-linejoin:round;stroke-miterlimit:10;stroke-dasharray:none;stroke-opacity:0.8"
         d="m 369.31558,-234.9278 c 0,2.54 2.08,4.62 4.62,4.62 2.55,0 4.63,-2.08 4.63,-4.62 0,-2.54 -2.08,-4.62 -4.63,-4.62 -2.54,0 -4.62,2.08 -4.62,4.62" />
      <path
         inkscape:connector-curvature="0"
         id="path192"
         style="fill:#00c094;fill-opacity:1;fill-rule:nonzero;stroke:none;stroke-width:1.0704;stroke-linecap:round;stroke-linejoin:round;stroke-miterlimit:10;stroke-dasharray:none;stroke-opacity:0.8"
         d="m 272.84558,-261.2978 c 0,2.54 2.08,4.62 4.62,4.62 2.54,0 4.62,-2.08 4.62,-4.62 0,-2.55 -2.08,-4.63 -4.62,-4.63 -2.54,0 -4.62,2.08 -4.62,4.63" />
      <path
         inkscape:connector-curvature="0"
         id="path194"
         style="fill:#000000;fill-opacity:1;fill-rule:nonzero;stroke:none;stroke-width:1.0704;stroke-linecap:round;stroke-linejoin:round;stroke-miterlimit:10;stroke-dasharray:none;stroke-opacity:0.8"
         d="m 275.67558,-139.8178 c 0,2.54 2.08,4.62 4.62,4.62 2.54,0 4.62,-2.08 4.62,-4.62 0,-2.54 -2.08,-4.62 -4.62,-4.62 -2.54,0 -4.62,2.08 -4.62,4.62" />
      <path
         inkscape:connector-curvature="0"
         id="path196"
         style="fill:#000000;fill-opacity:1;fill-rule:nonzero;stroke:none;stroke-width:1.0704;stroke-linecap:round;stroke-linejoin:round;stroke-miterlimit:10;stroke-dasharray:none;stroke-opacity:0.8"
         d="m 329.97558,-148.5378 c 0,2.54 2.08,4.62 4.63,4.62 2.54,0 4.62,-2.08 4.62,-4.62 0,-2.54 -2.08,-4.62 -4.62,-4.62 -2.55,0 -4.63,2.08 -4.63,4.62" />
      <path
         inkscape:connector-curvature="0"
         id="path198"
         style="fill:#7f7f7f;fill-opacity:1;fill-rule:nonzero;stroke:none;stroke-width:1.0704;stroke-linecap:round;stroke-linejoin:round;stroke-miterlimit:10;stroke-dasharray:none;stroke-opacity:0.8"
         d="m 362.62558,-241.4778 c 0,2.55 2.08,4.63 4.62,4.63 2.54,0 4.62,-2.08 4.62,-4.63 0,-2.54 -2.08,-4.62 -4.62,-4.62 -2.54,0 -4.62,2.08 -4.62,4.62" />
      <path
         inkscape:connector-curvature="0"
         id="path200"
         style="fill:none;stroke:#000000;stroke-width:1.0704;stroke-linecap:butt;stroke-linejoin:round;stroke-miterlimit:10;stroke-dasharray:1.0704, 2.1408;stroke-dashoffset:0;stroke-opacity:1"
         d="m 201.70558,-202.0478 241.61,0" />
      <path
         inkscape:connector-curvature="0"
         id="path202"
         style="fill:none;stroke:#000000;stroke-width:1.0704;stroke-linecap:butt;stroke-linejoin:round;stroke-miterlimit:10;stroke-dasharray:1.0704, 2.1408;stroke-dashoffset:0;stroke-opacity:1"
         d="m 321.46558,-293.9878 0,228.629998" />
      <path
         inkscape:connector-curvature="0"
         id="path204"
         style="fill:none;stroke:#000000;stroke-width:1.0704;stroke-linecap:round;stroke-linejoin:round;stroke-miterlimit:10;stroke-dasharray:none;stroke-opacity:1"
         d="m 201.70558,-293.9878 241.61,0 0,228.629998 -241.61,0 0,-228.629998 z" />
      <text
         y="277.53781"
         x="179.00558"
         transform="scale(1,-1)"
         style="font-variant:normal;font-weight:normal;font-size:10px;font-family:Helvetica;-inkscape-font-specification:Helvetica;writing-mode:lr-tb;fill:#000000;fill-opacity:1;fill-rule:nonzero;stroke:none"
         id="text238">
        <tspan
           sodipodi:role="line"
           id="tspan240"
           x="179.00558"
           y="277.53781">−0.2</tspan>
      </text>
      <text
         y="205.47781"
         x="184.26559"
         transform="scale(1,-1)"
         style="font-variant:normal;font-weight:normal;font-size:10px;font-family:Helvetica;-inkscape-font-specification:Helvetica;writing-mode:lr-tb;fill:#000000;fill-opacity:1;fill-rule:nonzero;stroke:none"
         id="text242">
        <tspan
           sodipodi:role="line"
           id="tspan244"
           x="184.26559"
           y="205.47781">0.0</tspan>
      </text>
      <text
         y="133.41782"
         x="184.26559"
         transform="scale(1,-1)"
         style="font-variant:normal;font-weight:normal;font-size:10px;font-family:Helvetica;-inkscape-font-specification:Helvetica;writing-mode:lr-tb;fill:#000000;fill-opacity:1;fill-rule:nonzero;stroke:none"
         id="text246">
        <tspan
           sodipodi:role="line"
           id="tspan248"
           x="184.26559"
           y="133.41782">0.2</tspan>
      </text>
      <path
         d="m 198.96558,-274.1078 2.74,0"
         style="fill:#000000;stroke:#000000;stroke-width:1.07000005;stroke-linecap:butt;stroke-linejoin:round;stroke-miterlimit:10;stroke-dasharray:none;stroke-opacity:1"
         id="path254-9"
         inkscape:connector-curvature="0" />
      <path
         d="m 198.96558,-202.0478 2.74,0"
         style="fill:#000000;stroke:#000000;stroke-width:1.07000005;stroke-linecap:butt;stroke-linejoin:round;stroke-miterlimit:10;stroke-dasharray:none;stroke-opacity:1"
         id="path256"
         inkscape:connector-curvature="0" />
      <path
         d="m 198.96558,-129.9878 2.74,0"
         style="fill:#000000;stroke:#000000;stroke-width:1.07000005;stroke-linecap:butt;stroke-linejoin:round;stroke-miterlimit:10;stroke-dasharray:none;stroke-opacity:1"
         id="path258"
         inkscape:connector-curvature="0" />
      <path
         d="m 249.40558,-296.7278 0,2.74"
         style="fill:#000000;stroke:#000000;stroke-width:1.07000005;stroke-linecap:butt;stroke-linejoin:round;stroke-miterlimit:10;stroke-dasharray:none;stroke-opacity:1"
         id="path280"
         inkscape:connector-curvature="0" />
      <path
         d="m 321.46558,-296.7278 0,2.74"
         style="fill:#000000;stroke:#000000;stroke-width:1.07000005;stroke-linecap:butt;stroke-linejoin:round;stroke-miterlimit:10;stroke-dasharray:none;stroke-opacity:1"
         id="path282"
         inkscape:connector-curvature="0" />
      <path
         d="m 393.52558,-296.7278 0,2.74"
         style="fill:#000000;stroke:#000000;stroke-width:1.07000005;stroke-linecap:butt;stroke-linejoin:round;stroke-miterlimit:10;stroke-dasharray:none;stroke-opacity:1"
         id="path284"
         inkscape:connector-curvature="0" />
      <text
         y="305.37781"
         x="239.56071"
         transform="scale(1,-1)"
         style="font-variant:normal;font-weight:normal;font-size:10px;font-family:Helvetica;-inkscape-font-specification:Helvetica;writing-mode:lr-tb;fill:#000000;fill-opacity:1;fill-rule:nonzero;stroke:none"
         id="text290">
        <tspan
           sodipodi:role="line"
           id="tspan292"
           x="239.56071"
           y="305.37781">−0.2</tspan>
      </text>
      <text
         y="305.37781"
         x="314.54565"
         transform="scale(1,-1)"
         style="font-variant:normal;font-weight:normal;font-size:10px;font-family:Helvetica;-inkscape-font-specification:Helvetica;writing-mode:lr-tb;fill:#000000;fill-opacity:1;fill-rule:nonzero;stroke:none"
         id="text294">
        <tspan
           sodipodi:role="line"
           id="tspan296"
           x="314.54565"
           y="305.37781">0.0</tspan>
      </text>
      <text
         y="305.37781"
         x="386.58566"
         transform="scale(1,-1)"
         style="font-variant:normal;font-weight:normal;font-size:10px;font-family:Helvetica;-inkscape-font-specification:Helvetica;writing-mode:lr-tb;fill:#000000;fill-opacity:1;fill-rule:nonzero;stroke:none"
         id="text298">
        <tspan
           sodipodi:role="line"
           id="tspan300"
           x="386.58566"
           y="305.37781">0.2</tspan>
      </text>
      <g
         id="g336"
         transform="translate(87.49038,-342.1678)">
        <text
           y="-292.78"
           x="113.4"
           id="text338"
           style="font-variant:normal;font-weight:normal;font-size:8px;font-family:Helvetica;-inkscape-font-specification:Helvetica;writing-mode:lr-tb;fill:#000000;fill-opacity:1;fill-rule:nonzero;stroke:none"
           transform="scale(1,-1)">
          <tspan
             y="-292.78"
             id="tspan340"
             sodipodi:role="line"
             x="113.4">Bray−Curtis − constrained by cohort:</tspan>
          <tspan
             id="tspan8108"
             y="-282.78"
             sodipodi:role="line"
             x="113.4">5.4% of variance; P &lt; 0.001; 95% CI = [4.6%, 6.4%]</tspan>
        </text>
        <text
           id="text342"
           style="font-variant:normal;font-weight:normal;font-size:8px;font-family:Helvetica;-inkscape-font-specification:Helvetica;writing-mode:lr-tb;fill:#000000;fill-opacity:1;fill-rule:nonzero;stroke:none"
           transform="matrix(1,0,0,-1,115.624,268.14)">
          <tspan
             y="0"
             x="0"
             id="tspan344"
             sodipodi:role="line" />
        </text>
      </g>
      <text
         transform="scale(1,-1)"
         y="320.34326"
         x="243.36278"
         style="font-variant:normal;font-weight:normal;font-size:12px;font-family:Helvetica;-inkscape-font-specification:Helvetica;writing-mode:lr-tb;fill:#000000;fill-opacity:1;fill-rule:nonzero;stroke:none"
         id="text302-9">
        <tspan
           y="320.34326"
           x="243.36278"
           sodipodi:role="line"
           id="tspan304-3">constrained PCoA 1 (64.03%)</tspan>
      </text>
      <text
         transform="matrix(0,1,1,0,0,0)"
         y="176.53409"
         x="-258.82059"
         style="font-variant:normal;font-weight:normal;font-size:12px;font-family:Helvetica;-inkscape-font-specification:Helvetica;writing-mode:lr-tb;fill:#000000;fill-opacity:1;fill-rule:nonzero;stroke:none"
         id="text302-9-3">
        <tspan
           y="176.53409"
           x="-258.82059"
           sodipodi:role="line"
           id="tspan304-3-8">constrained PCoA 2 (35.97%)</tspan>
      </text>
      <g
         transform="translate(-53.191704,157.20621)"
         id="g8253">
        <g
           id="g8238"
           transform="translate(5.3125e-6,-3.5451246)">
          <path
             inkscape:connector-curvature="0"
             id="path178-8-0"
             style="fill:#000000;fill-opacity:1;fill-rule:nonzero;stroke:none;stroke-width:1.0704;stroke-linecap:round;stroke-linejoin:round;stroke-miterlimit:10;stroke-dasharray:none;stroke-opacity:0.8"
             d="m 289.95394,-498.15656 c 0,2.54 2.08,4.62 4.63,4.62 2.54,0 4.62,-2.08 4.62,-4.62 0,-2.54 -2.08,-4.62 -4.62,-4.62 -2.55,0 -4.63,2.08 -4.63,4.62" />
          <text
             transform="scale(1,-1)"
             y="502.53055"
             x="304.72693"
             style="font-variant:normal;font-weight:normal;font-size:12px;font-family:Helvetica;-inkscape-font-specification:Helvetica;writing-mode:lr-tb;fill:#000000;fill-opacity:1;fill-rule:nonzero;stroke:none"
             id="text302-9-5">
            <tspan
               y="502.53055"
               x="304.72693"
               sodipodi:role="line"
               id="tspan304-3-6">AIH</tspan>
          </text>
        </g>
        <g
           id="g8248"
           transform="translate(118.90491,34.205521)">
          <path
             inkscape:connector-curvature="0"
             id="path180-6"
             style="fill:#00c094;fill-opacity:1;fill-rule:nonzero;stroke:none;stroke-width:1.0704;stroke-linecap:round;stroke-linejoin:round;stroke-miterlimit:10;stroke-dasharray:none;stroke-opacity:0.8"
             d="m 289.95394,-535.90219 c 0,2.54 2.08,4.62 4.63,4.62 2.54,0 4.62,-2.08 4.62,-4.62 0,-2.55 -2.08,-4.63 -4.62,-4.63 -2.55,0 -4.63,2.08 -4.63,4.63" />
          <text
             transform="scale(1,-1)"
             y="538.97321"
             x="304.09094"
             style="font-variant:normal;font-weight:normal;font-size:12px;font-family:Helvetica;-inkscape-font-specification:Helvetica;writing-mode:lr-tb;fill:#000000;fill-opacity:1;fill-rule:nonzero;stroke:none"
             id="text302-9-5-4">
            <tspan
               y="538.97321"
               x="304.09094"
               sodipodi:role="line"
               id="tspan304-3-6-0">healthy</tspan>
          </text>
        </g>
        <g
           id="g8243"
           transform="translate(51.472832,18.731575)">
          <path
             inkscape:connector-curvature="0"
             id="path152-1-0"
             style="fill:#7f7f7f;fill-opacity:1;fill-rule:nonzero;stroke:none;stroke-width:1.0704;stroke-linecap:round;stroke-linejoin:round;stroke-miterlimit:10;stroke-dasharray:none;stroke-opacity:0.8"
             d="m 289.95394,-520.43326 c 0,2.54 2.08,4.62 4.62,4.62 2.54,0 4.62,-2.08 4.62,-4.62 0,-2.54 -2.08,-4.62 -4.62,-4.62 -2.54,0 -4.62,2.08 -4.62,4.62" />
          <text
             transform="scale(1,-1)"
             y="524.66925"
             x="304.55893"
             style="font-variant:normal;font-weight:normal;font-size:12px;font-family:Helvetica;-inkscape-font-specification:Helvetica;writing-mode:lr-tb;fill:#000000;fill-opacity:1;fill-rule:nonzero;stroke:none"
             id="text302-9-5-4-4">
            <tspan
               y="524.66925"
               x="304.55893"
               sodipodi:role="line"
               id="tspan304-3-6-0-6">control</tspan>
          </text>
        </g>
      </g>
    </g>
  </g>
</svg>
