<?xml version="1.0" encoding="UTF-8" standalone="no"?>
<!-- Created with Inkscape (http://www.inkscape.org/) -->

<svg
   xmlns:dc="http://purl.org/dc/elements/1.1/"
   xmlns:cc="http://creativecommons.org/ns#"
   xmlns:rdf="http://www.w3.org/1999/02/22-rdf-syntax-ns#"
   xmlns:svg="http://www.w3.org/2000/svg"
   xmlns="http://www.w3.org/2000/svg"
   xmlns:sodipodi="http://sodipodi.sourceforge.net/DTD/sodipodi-0.dtd"
   xmlns:inkscape="http://www.inkscape.org/namespaces/inkscape"
   id="svg2"
   version="1.1"
   inkscape:version="0.91 r13725"
   xml:space="preserve"
   width="213.47977"
   height="451.83298"
   viewBox="0 0 213.47976 451.83298"
   sodipodi:docname="figure5.svg"><metadata
     id="metadata8"><rdf:RDF><cc:Work
         rdf:about=""><dc:format>image/svg+xml</dc:format><dc:type
           rdf:resource="http://purl.org/dc/dcmitype/StillImage" /><dc:title></dc:title></cc:Work></rdf:RDF></metadata><defs
     id="defs6"><clipPath
       clipPathUnits="userSpaceOnUse"
       id="clipPath34"><path
         d="m 41.7,152.7 127.79,0 0,216.37 -127.79,0 0,-216.37 z"
         id="path36"
         inkscape:connector-curvature="0" /></clipPath><clipPath
       clipPathUnits="userSpaceOnUse"
       id="clipPath222"><path
         d="m 201.84,152.7 127.79,0 0,216.37 -127.79,0 0,-216.37 z"
         id="path224"
         inkscape:connector-curvature="0" /></clipPath><clipPath
       clipPathUnits="userSpaceOnUse"
       id="clipPath406"><path
         d="m 346.24,152.7 127.79,0 0,216.37 -127.79,0 0,-216.37 z"
         id="path408"
         inkscape:connector-curvature="0" /></clipPath><clipPath
       clipPathUnits="userSpaceOnUse"
       id="clipPath602"><path
         d="m 41.7,369.07 127.79,0 0,18.71 -127.79,0 0,-18.71 z"
         id="path604"
         inkscape:connector-curvature="0" /></clipPath><clipPath
       clipPathUnits="userSpaceOnUse"
       id="clipPath610"><path
         d="m 41.7,369.07 127.79,0 0,18.71 -127.79,0 0,-18.71 z"
         id="path612"
         inkscape:connector-curvature="0" /></clipPath><clipPath
       clipPathUnits="userSpaceOnUse"
       id="clipPath624"><path
         d="m 41.7,369.07 127.79,0 0,18.71 -127.79,0 0,-18.71 z"
         id="path626"
         inkscape:connector-curvature="0" /></clipPath><clipPath
       clipPathUnits="userSpaceOnUse"
       id="clipPath632"><path
         d="m 41.7,369.07 127.79,0 0,18.71 -127.79,0 0,-18.71 z"
         id="path634"
         inkscape:connector-curvature="0" /></clipPath><clipPath
       clipPathUnits="userSpaceOnUse"
       id="clipPath642"><path
         d="m 201.84,369.07 127.79,0 0,18.71 -127.79,0 0,-18.71 z"
         id="path644"
         inkscape:connector-curvature="0" /></clipPath><clipPath
       clipPathUnits="userSpaceOnUse"
       id="clipPath650"><path
         d="m 201.84,369.07 127.79,0 0,18.71 -127.79,0 0,-18.71 z"
         id="path652"
         inkscape:connector-curvature="0" /></clipPath><clipPath
       clipPathUnits="userSpaceOnUse"
       id="clipPath664"><path
         d="m 201.84,369.07 127.79,0 0,18.71 -127.79,0 0,-18.71 z"
         id="path666"
         inkscape:connector-curvature="0" /></clipPath><clipPath
       clipPathUnits="userSpaceOnUse"
       id="clipPath672"><path
         d="m 201.84,369.07 127.79,0 0,18.71 -127.79,0 0,-18.71 z"
         id="path674"
         inkscape:connector-curvature="0" /></clipPath><clipPath
       clipPathUnits="userSpaceOnUse"
       id="clipPath682"><path
         d="m 346.24,369.07 127.79,0 0,18.71 -127.79,0 0,-18.71 z"
         id="path684"
         inkscape:connector-curvature="0" /></clipPath><clipPath
       clipPathUnits="userSpaceOnUse"
       id="clipPath690"><path
         d="m 346.24,369.07 127.79,0 0,18.71 -127.79,0 0,-18.71 z"
         id="path692"
         inkscape:connector-curvature="0" /></clipPath><clipPath
       clipPathUnits="userSpaceOnUse"
       id="clipPath704"><path
         d="m 346.24,369.07 127.79,0 0,18.71 -127.79,0 0,-18.71 z"
         id="path706"
         inkscape:connector-curvature="0" /></clipPath><clipPath
       clipPathUnits="userSpaceOnUse"
       id="clipPath712"><path
         d="m 346.24,369.07 127.79,0 0,18.71 -127.79,0 0,-18.71 z"
         id="path714"
         inkscape:connector-curvature="0" /></clipPath></defs><sodipodi:namedview
     pagecolor="#ffffff"
     bordercolor="#666666"
     borderopacity="1"
     objecttolerance="10"
     gridtolerance="10"
     guidetolerance="10"
     inkscape:pageopacity="0"
     inkscape:pageshadow="2"
     inkscape:window-width="960"
     inkscape:window-height="981"
     id="namedview4"
     showgrid="false"
     fit-margin-top="10"
     fit-margin-right="10"
     fit-margin-bottom="10"
     fit-margin-left="10"
     inkscape:zoom="1.3587965"
     inkscape:cx="135.1541"
     inkscape:cy="359.85199"
     inkscape:window-x="960"
     inkscape:window-y="28"
     inkscape:window-maximized="0"
     inkscape:current-layer="g10" /><g
     id="g10"
     inkscape:groupmode="layer"
     inkscape:label="Rplot01"
     transform="matrix(1.25,0,0,-1.25,-209.05,480.29315)"><g
       id="g12" /><g
       id="g14" /><g
       id="g16" /><g
       id="g18" /><g
       id="g20" /><g
       id="g22" /><g
       id="g28" /><g
       id="g216" /><path
       d="m 201.84,218.8 127.79,0"
       style="fill:none;stroke:#ebebeb;stroke-width:1.07000005;stroke-linecap:butt;stroke-linejoin:round;stroke-miterlimit:10;stroke-dasharray:none;stroke-opacity:1"
       id="path234"
       inkscape:connector-curvature="0" /><path
       d="m 201.84,305.63 127.79,0"
       style="fill:none;stroke:#ebebeb;stroke-width:1.07000005;stroke-linecap:butt;stroke-linejoin:round;stroke-miterlimit:10;stroke-dasharray:none;stroke-opacity:1"
       id="path236"
       inkscape:connector-curvature="0" /><path
       d="m 220.10441,152.70618 0,223.12834"
       style="fill:none;stroke:#ebebeb;stroke-width:1.08652985;stroke-linecap:butt;stroke-linejoin:round;stroke-miterlimit:10;stroke-dasharray:none;stroke-opacity:1"
       id="path238"
       inkscape:connector-curvature="0" /><path
       d="m 250.52147,152.70618 0,223.12834"
       style="fill:none;stroke:#ebebeb;stroke-width:1.08652985;stroke-linecap:butt;stroke-linejoin:round;stroke-miterlimit:10;stroke-dasharray:none;stroke-opacity:1"
       id="path240"
       inkscape:connector-curvature="0" /><path
       d="m 280.94853,152.70618 0,223.12834"
       style="fill:none;stroke:#ebebeb;stroke-width:1.08652985;stroke-linecap:butt;stroke-linejoin:round;stroke-miterlimit:10;stroke-dasharray:none;stroke-opacity:1"
       id="path242"
       inkscape:connector-curvature="0" /><path
       d="m 311.36559,152.70618 0,223.12834"
       style="fill:none;stroke:#ebebeb;stroke-width:1.08652985;stroke-linecap:butt;stroke-linejoin:round;stroke-miterlimit:10;stroke-dasharray:none;stroke-opacity:1"
       id="path244"
       inkscape:connector-curvature="0" /><path
       d="m 218.14,162.54 c 0,1.07 0.88,1.95 1.96,1.95 1.07,0 1.95,-0.88 1.95,-1.95 0,-1.08 -0.88,-1.96 -1.95,-1.96 -1.08,0 -1.96,0.88 -1.96,1.96"
       style="fill:#333333;fill-opacity:1;fill-rule:nonzero;stroke:#333333;stroke-width:0.70999998;stroke-linecap:round;stroke-linejoin:round;stroke-miterlimit:10;stroke-dasharray:none;stroke-opacity:1"
       id="path246"
       inkscape:connector-curvature="0" /><path
       d="m 220.1,336.53 0,22.7"
       style="fill:none;stroke:#000000;stroke-width:1.07000005;stroke-linecap:butt;stroke-linejoin:round;stroke-miterlimit:10;stroke-dasharray:none;stroke-opacity:1"
       id="path248"
       inkscape:connector-curvature="0" /><path
       d="m 220.1,276.32 0,-22.01"
       style="fill:none;stroke:#000000;stroke-width:1.07000005;stroke-linecap:butt;stroke-linejoin:round;stroke-miterlimit:10;stroke-dasharray:none;stroke-opacity:1"
       id="path250"
       inkscape:connector-curvature="0" /><path
       d="m 212.49,336.53 0,-60.21 15.22,0 0,60.21 -15.22,0 z"
       style="fill:#ffffff;fill-opacity:1;fill-rule:nonzero;stroke:#000000;stroke-width:1.07000005;stroke-linecap:round;stroke-linejoin:round;stroke-miterlimit:10;stroke-dasharray:none;stroke-opacity:1"
       id="path252"
       inkscape:connector-curvature="0" /><path
       d="m 212.49,322.09 15.22,0"
       style="fill:none;stroke:#000000;stroke-width:2.13000011;stroke-linecap:butt;stroke-linejoin:round;stroke-miterlimit:10;stroke-dasharray:none;stroke-opacity:1"
       id="path254"
       inkscape:connector-curvature="0" /><path
       d="m 250.52,322.63 0,26.42"
       style="fill:none;stroke:#000000;stroke-width:1.07000005;stroke-linecap:butt;stroke-linejoin:round;stroke-miterlimit:10;stroke-dasharray:none;stroke-opacity:1"
       id="path256"
       inkscape:connector-curvature="0" /><path
       d="m 250.52,244.67 0,-34.63"
       style="fill:none;stroke:#000000;stroke-width:1.07000005;stroke-linecap:butt;stroke-linejoin:round;stroke-miterlimit:10;stroke-dasharray:none;stroke-opacity:1"
       id="path258"
       inkscape:connector-curvature="0" /><path
       d="m 242.92,322.63 0,-77.96 15.21,0 0,77.96 -15.21,0 z"
       style="fill:#ffffff;fill-opacity:1;fill-rule:nonzero;stroke:#000000;stroke-width:1.07000005;stroke-linecap:round;stroke-linejoin:round;stroke-miterlimit:10;stroke-dasharray:none;stroke-opacity:1"
       id="path260"
       inkscape:connector-curvature="0" /><path
       d="m 242.92,273.65 15.21,0"
       style="fill:none;stroke:#000000;stroke-width:2.13000011;stroke-linecap:butt;stroke-linejoin:round;stroke-miterlimit:10;stroke-dasharray:none;stroke-opacity:1"
       id="path262"
       inkscape:connector-curvature="0" /><path
       d="m 280.95,289.71 0,31.64"
       style="fill:none;stroke:#000000;stroke-width:1.07000005;stroke-linecap:butt;stroke-linejoin:round;stroke-miterlimit:10;stroke-dasharray:none;stroke-opacity:1"
       id="path264"
       inkscape:connector-curvature="0" /><path
       d="m 280.95,245.56 0,-39.86"
       style="fill:none;stroke:#000000;stroke-width:1.07000005;stroke-linecap:butt;stroke-linejoin:round;stroke-miterlimit:10;stroke-dasharray:none;stroke-opacity:1"
       id="path266"
       inkscape:connector-curvature="0" /><path
       d="m 273.34,289.71 0,-44.15 15.22,0 0,44.15 -15.22,0 z"
       style="fill:#ffffff;fill-opacity:1;fill-rule:nonzero;stroke:#000000;stroke-width:1.07000005;stroke-linecap:round;stroke-linejoin:round;stroke-miterlimit:10;stroke-dasharray:none;stroke-opacity:1"
       id="path268"
       inkscape:connector-curvature="0" /><path
       d="m 273.34,278.54 15.22,0"
       style="fill:none;stroke:#000000;stroke-width:2.13000011;stroke-linecap:butt;stroke-linejoin:round;stroke-miterlimit:10;stroke-dasharray:none;stroke-opacity:1"
       id="path270"
       inkscape:connector-curvature="0" /><path
       d="m 309.42,165.85 c 0,1.08 0.88,1.95 1.95,1.95 1.08,0 1.96,-0.87 1.96,-1.95 0,-1.08 -0.88,-1.95 -1.96,-1.95 -1.07,0 -1.95,0.87 -1.95,1.95"
       style="fill:#333333;fill-opacity:1;fill-rule:nonzero;stroke:#333333;stroke-width:0.70999998;stroke-linecap:round;stroke-linejoin:round;stroke-miterlimit:10;stroke-dasharray:none;stroke-opacity:1"
       id="path272"
       inkscape:connector-curvature="0" /><path
       d="m 311.37,273.82 0,34.16"
       style="fill:none;stroke:#000000;stroke-width:1.07000005;stroke-linecap:butt;stroke-linejoin:round;stroke-miterlimit:10;stroke-dasharray:none;stroke-opacity:1"
       id="path274"
       inkscape:connector-curvature="0" /><path
       d="m 311.37,238.62 0,-42.15"
       style="fill:none;stroke:#000000;stroke-width:1.07000005;stroke-linecap:butt;stroke-linejoin:round;stroke-miterlimit:10;stroke-dasharray:none;stroke-opacity:1"
       id="path276"
       inkscape:connector-curvature="0" /><path
       d="m 303.77,273.82 0,-35.2 15.21,0 0,35.2 -15.21,0 z"
       style="fill:#ffffff;fill-opacity:1;fill-rule:nonzero;stroke:#000000;stroke-width:1.07000005;stroke-linecap:round;stroke-linejoin:round;stroke-miterlimit:10;stroke-dasharray:none;stroke-opacity:1"
       id="path278"
       inkscape:connector-curvature="0" /><path
       d="m 303.77,262.73 15.21,0"
       style="fill:none;stroke:#000000;stroke-width:2.13000011;stroke-linecap:butt;stroke-linejoin:round;stroke-miterlimit:10;stroke-dasharray:none;stroke-opacity:1"
       id="path280"
       inkscape:connector-curvature="0" /><path
       d="m 224.28,270.89 c 0,0.78 0.63,1.42 1.42,1.42 0.78,0 1.42,-0.64 1.42,-1.42 0,-0.78 -0.64,-1.42 -1.42,-1.42 -0.79,0 -1.42,0.64 -1.42,1.42"
       style="fill:#dfc27d;fill-opacity:1;fill-rule:nonzero;stroke:#dfc27d;stroke-width:0.70999998;stroke-linecap:round;stroke-linejoin:round;stroke-miterlimit:10;stroke-dasharray:none;stroke-opacity:1"
       id="path282"
       inkscape:connector-curvature="0" /><path
       d="m 303.88,270.85 c 0,0.79 0.64,1.43 1.42,1.43 0.78,0 1.42,-0.64 1.42,-1.43 0,-0.78 -0.64,-1.42 -1.42,-1.42 -0.78,0 -1.42,0.64 -1.42,1.42"
       style="fill:#018571;fill-opacity:1;fill-rule:nonzero;stroke:#018571;stroke-width:0.70999998;stroke-linecap:round;stroke-linejoin:round;stroke-miterlimit:10;stroke-dasharray:none;stroke-opacity:1"
       id="path284"
       inkscape:connector-curvature="0" /><path
       d="m 309.7,262.73 c 0,0.78 0.64,1.42 1.42,1.42 0.78,0 1.42,-0.64 1.42,-1.42 0,-0.78 -0.64,-1.42 -1.42,-1.42 -0.78,0 -1.42,0.64 -1.42,1.42"
       style="fill:#018571;fill-opacity:1;fill-rule:nonzero;stroke:#018571;stroke-width:0.70999998;stroke-linecap:round;stroke-linejoin:round;stroke-miterlimit:10;stroke-dasharray:none;stroke-opacity:1"
       id="path286"
       inkscape:connector-curvature="0" /><path
       d="m 315.14,250.48 c 0,0.78 0.64,1.42 1.42,1.42 0.78,0 1.42,-0.64 1.42,-1.42 0,-0.78 -0.64,-1.42 -1.42,-1.42 -0.78,0 -1.42,0.64 -1.42,1.42"
       style="fill:#018571;fill-opacity:1;fill-rule:nonzero;stroke:#018571;stroke-width:0.70999998;stroke-linecap:round;stroke-linejoin:round;stroke-miterlimit:10;stroke-dasharray:none;stroke-opacity:1"
       id="path288"
       inkscape:connector-curvature="0" /><path
       d="m 214.98,341.49 c 0,0.78 0.64,1.42 1.42,1.42 0.78,0 1.42,-0.64 1.42,-1.42 0,-0.78 -0.64,-1.42 -1.42,-1.42 -0.78,0 -1.42,0.64 -1.42,1.42"
       style="fill:#dfc27d;fill-opacity:1;fill-rule:nonzero;stroke:#dfc27d;stroke-width:0.70999998;stroke-linecap:round;stroke-linejoin:round;stroke-miterlimit:10;stroke-dasharray:none;stroke-opacity:1"
       id="path290"
       inkscape:connector-curvature="0" /><path
       d="m 304.37,307.98 c 0,0.79 0.64,1.42 1.42,1.42 0.78,0 1.42,-0.63 1.42,-1.42 0,-0.78 -0.64,-1.42 -1.42,-1.42 -0.78,0 -1.42,0.64 -1.42,1.42"
       style="fill:#018571;fill-opacity:1;fill-rule:nonzero;stroke:#018571;stroke-width:0.70999998;stroke-linecap:round;stroke-linejoin:round;stroke-miterlimit:10;stroke-dasharray:none;stroke-opacity:1"
       id="path292"
       inkscape:connector-curvature="0" /><path
       d="m 222.46,329.21 c 0,0.78 0.64,1.42 1.42,1.42 0.78,0 1.42,-0.64 1.42,-1.42 0,-0.78 -0.64,-1.42 -1.42,-1.42 -0.78,0 -1.42,0.64 -1.42,1.42"
       style="fill:#dfc27d;fill-opacity:1;fill-rule:nonzero;stroke:#dfc27d;stroke-width:0.70999998;stroke-linecap:round;stroke-linejoin:round;stroke-miterlimit:10;stroke-dasharray:none;stroke-opacity:1"
       id="path294"
       inkscape:connector-curvature="0" /><path
       d="m 310.71,244.11 c 0,0.78 0.64,1.42 1.42,1.42 0.78,0 1.42,-0.64 1.42,-1.42 0,-0.78 -0.64,-1.42 -1.42,-1.42 -0.78,0 -1.42,0.64 -1.42,1.42"
       style="fill:#018571;fill-opacity:1;fill-rule:nonzero;stroke:#018571;stroke-width:0.70999998;stroke-linecap:round;stroke-linejoin:round;stroke-miterlimit:10;stroke-dasharray:none;stroke-opacity:1"
       id="path296"
       inkscape:connector-curvature="0" /><path
       d="m 220.31,319.35 c 0,0.78 0.64,1.42 1.42,1.42 0.78,0 1.42,-0.64 1.42,-1.42 0,-0.78 -0.64,-1.42 -1.42,-1.42 -0.78,0 -1.42,0.64 -1.42,1.42"
       style="fill:#dfc27d;fill-opacity:1;fill-rule:nonzero;stroke:#dfc27d;stroke-width:0.70999998;stroke-linecap:round;stroke-linejoin:round;stroke-miterlimit:10;stroke-dasharray:none;stroke-opacity:1"
       id="path298"
       inkscape:connector-curvature="0" /><path
       d="m 243.48,283.76 c 0,0.78 0.64,1.42 1.42,1.42 0.78,0 1.42,-0.64 1.42,-1.42 0,-0.78 -0.64,-1.42 -1.42,-1.42 -0.78,0 -1.42,0.64 -1.42,1.42"
       style="fill:#a6611a;fill-opacity:0.8;fill-rule:nonzero;stroke:#a6611a;stroke-width:0.70999998;stroke-linecap:round;stroke-linejoin:round;stroke-miterlimit:10;stroke-dasharray:none;stroke-opacity:0.8"
       id="path300"
       inkscape:connector-curvature="0" /><path
       d="m 278.32,272.11 c 0,0.78 0.63,1.42 1.42,1.42 0.78,0 1.42,-0.64 1.42,-1.42 0,-0.78 -0.64,-1.42 -1.42,-1.42 -0.79,0 -1.42,0.64 -1.42,1.42"
       style="fill:#80cdc1;fill-opacity:1;fill-rule:nonzero;stroke:#80cdc1;stroke-width:0.70999998;stroke-linecap:round;stroke-linejoin:round;stroke-miterlimit:10;stroke-dasharray:none;stroke-opacity:1"
       id="path302"
       inkscape:connector-curvature="0" /><path
       d="m 308.61,287.39 c 0,0.79 0.64,1.43 1.42,1.43 0.78,0 1.42,-0.64 1.42,-1.43 0,-0.78 -0.64,-1.42 -1.42,-1.42 -0.78,0 -1.42,0.64 -1.42,1.42"
       style="fill:#018571;fill-opacity:1;fill-rule:nonzero;stroke:#018571;stroke-width:0.70999998;stroke-linecap:round;stroke-linejoin:round;stroke-miterlimit:10;stroke-dasharray:none;stroke-opacity:1"
       id="path304"
       inkscape:connector-curvature="0" /><path
       d="m 224.3,277.87 c 0,0.78 0.64,1.42 1.42,1.42 0.78,0 1.42,-0.64 1.42,-1.42 0,-0.78 -0.64,-1.42 -1.42,-1.42 -0.78,0 -1.42,0.64 -1.42,1.42"
       style="fill:#dfc27d;fill-opacity:1;fill-rule:nonzero;stroke:#dfc27d;stroke-width:0.70999998;stroke-linecap:round;stroke-linejoin:round;stroke-miterlimit:10;stroke-dasharray:none;stroke-opacity:1"
       id="path306"
       inkscape:connector-curvature="0" /><path
       d="m 216.28,328.4 c 0,0.79 0.64,1.43 1.42,1.43 0.79,0 1.42,-0.64 1.42,-1.43 0,-0.78 -0.63,-1.42 -1.42,-1.42 -0.78,0 -1.42,0.64 -1.42,1.42"
       style="fill:#dfc27d;fill-opacity:1;fill-rule:nonzero;stroke:#dfc27d;stroke-width:0.70999998;stroke-linecap:round;stroke-linejoin:round;stroke-miterlimit:10;stroke-dasharray:none;stroke-opacity:1"
       id="path308"
       inkscape:connector-curvature="0" /><path
       d="m 310.66,293.85 c 0,0.78 0.64,1.42 1.42,1.42 0.78,0 1.42,-0.64 1.42,-1.42 0,-0.78 -0.64,-1.42 -1.42,-1.42 -0.78,0 -1.42,0.64 -1.42,1.42"
       style="fill:#018571;fill-opacity:1;fill-rule:nonzero;stroke:#018571;stroke-width:0.70999998;stroke-linecap:round;stroke-linejoin:round;stroke-miterlimit:10;stroke-dasharray:none;stroke-opacity:1"
       id="path310"
       inkscape:connector-curvature="0" /><path
       d="m 219.84,339.47 c 0,0.78 0.64,1.42 1.42,1.42 0.78,0 1.42,-0.64 1.42,-1.42 0,-0.78 -0.64,-1.42 -1.42,-1.42 -0.78,0 -1.42,0.64 -1.42,1.42"
       style="fill:#dfc27d;fill-opacity:1;fill-rule:nonzero;stroke:#dfc27d;stroke-width:0.70999998;stroke-linecap:round;stroke-linejoin:round;stroke-miterlimit:10;stroke-dasharray:none;stroke-opacity:1"
       id="path312"
       inkscape:connector-curvature="0" /><path
       d="m 244.49,238.38 c 0,0.78 0.64,1.42 1.42,1.42 0.78,0 1.42,-0.64 1.42,-1.42 0,-0.78 -0.64,-1.42 -1.42,-1.42 -0.78,0 -1.42,0.64 -1.42,1.42"
       style="fill:#a6611a;fill-opacity:0.8;fill-rule:nonzero;stroke:#a6611a;stroke-width:0.70999998;stroke-linecap:round;stroke-linejoin:round;stroke-miterlimit:10;stroke-dasharray:none;stroke-opacity:0.8"
       id="path314"
       inkscape:connector-curvature="0" /><path
       d="m 243.15,335.59 c 0,0.78 0.64,1.42 1.42,1.42 0.78,0 1.42,-0.64 1.42,-1.42 0,-0.78 -0.64,-1.42 -1.42,-1.42 -0.78,0 -1.42,0.64 -1.42,1.42"
       style="fill:#a6611a;fill-opacity:0.8;fill-rule:nonzero;stroke:#a6611a;stroke-width:0.70999998;stroke-linecap:round;stroke-linejoin:round;stroke-miterlimit:10;stroke-dasharray:none;stroke-opacity:0.8"
       id="path316"
       inkscape:connector-curvature="0" /><path
       d="m 310.8,270.75 c 0,0.78 0.64,1.42 1.42,1.42 0.78,0 1.42,-0.64 1.42,-1.42 0,-0.78 -0.64,-1.42 -1.42,-1.42 -0.78,0 -1.42,0.64 -1.42,1.42"
       style="fill:#018571;fill-opacity:1;fill-rule:nonzero;stroke:#018571;stroke-width:0.70999998;stroke-linecap:round;stroke-linejoin:round;stroke-miterlimit:10;stroke-dasharray:none;stroke-opacity:1"
       id="path318"
       inkscape:connector-curvature="0" /><path
       d="m 254.6,349.05 c 0,0.78 0.63,1.42 1.42,1.42 0.78,0 1.42,-0.64 1.42,-1.42 0,-0.79 -0.64,-1.43 -1.42,-1.43 -0.79,0 -1.42,0.64 -1.42,1.43"
       style="fill:#a6611a;fill-opacity:0.8;fill-rule:nonzero;stroke:#a6611a;stroke-width:0.70999998;stroke-linecap:round;stroke-linejoin:round;stroke-miterlimit:10;stroke-dasharray:none;stroke-opacity:0.8"
       id="path320"
       inkscape:connector-curvature="0" /><path
       d="m 314.25,294.69 c 0,0.78 0.64,1.42 1.43,1.42 0.78,0 1.42,-0.64 1.42,-1.42 0,-0.78 -0.64,-1.42 -1.42,-1.42 -0.79,0 -1.43,0.64 -1.43,1.42"
       style="fill:#018571;fill-opacity:1;fill-rule:nonzero;stroke:#018571;stroke-width:0.70999998;stroke-linecap:round;stroke-linejoin:round;stroke-miterlimit:10;stroke-dasharray:none;stroke-opacity:1"
       id="path322"
       inkscape:connector-curvature="0" /><path
       d="m 215.07,335.55 c 0,0.78 0.64,1.42 1.42,1.42 0.78,0 1.42,-0.64 1.42,-1.42 0,-0.78 -0.64,-1.42 -1.42,-1.42 -0.78,0 -1.42,0.64 -1.42,1.42"
       style="fill:#dfc27d;fill-opacity:1;fill-rule:nonzero;stroke:#dfc27d;stroke-width:0.70999998;stroke-linecap:round;stroke-linejoin:round;stroke-miterlimit:10;stroke-dasharray:none;stroke-opacity:1"
       id="path324"
       inkscape:connector-curvature="0" /><path
       d="m 304.54,165.85 c 0,0.78 0.64,1.42 1.42,1.42 0.78,0 1.42,-0.64 1.42,-1.42 0,-0.78 -0.64,-1.42 -1.42,-1.42 -0.78,0 -1.42,0.64 -1.42,1.42"
       style="fill:#018571;fill-opacity:1;fill-rule:nonzero;stroke:#018571;stroke-width:0.70999998;stroke-linecap:round;stroke-linejoin:round;stroke-miterlimit:10;stroke-dasharray:none;stroke-opacity:1"
       id="path326"
       inkscape:connector-curvature="0" /><path
       d="m 310.5,196.47 c 0,0.78 0.64,1.42 1.42,1.42 0.79,0 1.42,-0.64 1.42,-1.42 0,-0.78 -0.63,-1.42 -1.42,-1.42 -0.78,0 -1.42,0.64 -1.42,1.42"
       style="fill:#018571;fill-opacity:1;fill-rule:nonzero;stroke:#018571;stroke-width:0.70999998;stroke-linecap:round;stroke-linejoin:round;stroke-miterlimit:10;stroke-dasharray:none;stroke-opacity:1"
       id="path328"
       inkscape:connector-curvature="0" /><path
       d="m 274.68,278.54 c 0,0.78 0.64,1.42 1.42,1.42 0.78,0 1.42,-0.64 1.42,-1.42 0,-0.78 -0.64,-1.42 -1.42,-1.42 -0.78,0 -1.42,0.64 -1.42,1.42"
       style="fill:#80cdc1;fill-opacity:1;fill-rule:nonzero;stroke:#80cdc1;stroke-width:0.70999998;stroke-linecap:round;stroke-linejoin:round;stroke-miterlimit:10;stroke-dasharray:none;stroke-opacity:1"
       id="path330"
       inkscape:connector-curvature="0" /><path
       d="m 282.88,284.1 c 0,0.78 0.64,1.42 1.42,1.42 0.78,0 1.42,-0.64 1.42,-1.42 0,-0.79 -0.64,-1.43 -1.42,-1.43 -0.78,0 -1.42,0.64 -1.42,1.43"
       style="fill:#80cdc1;fill-opacity:1;fill-rule:nonzero;stroke:#80cdc1;stroke-width:0.70999998;stroke-linecap:round;stroke-linejoin:round;stroke-miterlimit:10;stroke-dasharray:none;stroke-opacity:1"
       id="path332"
       inkscape:connector-curvature="0" /><path
       d="m 280.53,290.78 c 0,0.78 0.63,1.42 1.42,1.42 0.78,0 1.42,-0.64 1.42,-1.42 0,-0.79 -0.64,-1.43 -1.42,-1.43 -0.79,0 -1.42,0.64 -1.42,1.43"
       style="fill:#80cdc1;fill-opacity:1;fill-rule:nonzero;stroke:#80cdc1;stroke-width:0.70999998;stroke-linecap:round;stroke-linejoin:round;stroke-miterlimit:10;stroke-dasharray:none;stroke-opacity:1"
       id="path334"
       inkscape:connector-curvature="0" /><path
       d="m 218.37,335.45 c 0,0.78 0.63,1.42 1.42,1.42 0.78,0 1.42,-0.64 1.42,-1.42 0,-0.78 -0.64,-1.42 -1.42,-1.42 -0.79,0 -1.42,0.64 -1.42,1.42"
       style="fill:#dfc27d;fill-opacity:1;fill-rule:nonzero;stroke:#dfc27d;stroke-width:0.70999998;stroke-linecap:round;stroke-linejoin:round;stroke-miterlimit:10;stroke-dasharray:none;stroke-opacity:1"
       id="path336"
       inkscape:connector-curvature="0" /><path
       d="m 304.13,307.8 c 0,0.78 0.64,1.42 1.42,1.42 0.78,0 1.42,-0.64 1.42,-1.42 0,-0.78 -0.64,-1.42 -1.42,-1.42 -0.78,0 -1.42,0.64 -1.42,1.42"
       style="fill:#018571;fill-opacity:1;fill-rule:nonzero;stroke:#018571;stroke-width:0.70999998;stroke-linecap:round;stroke-linejoin:round;stroke-miterlimit:10;stroke-dasharray:none;stroke-opacity:1"
       id="path338"
       inkscape:connector-curvature="0" /><path
       d="m 310.01,273.82 c 0,0.78 0.64,1.42 1.42,1.42 0.78,0 1.42,-0.64 1.42,-1.42 0,-0.79 -0.64,-1.43 -1.42,-1.43 -0.78,0 -1.42,0.64 -1.42,1.43"
       style="fill:#018571;fill-opacity:1;fill-rule:nonzero;stroke:#018571;stroke-width:0.70999998;stroke-linecap:round;stroke-linejoin:round;stroke-miterlimit:10;stroke-dasharray:none;stroke-opacity:1"
       id="path340"
       inkscape:connector-curvature="0" /><path
       d="m 275.34,321.35 c 0,0.78 0.64,1.42 1.42,1.42 0.79,0 1.42,-0.64 1.42,-1.42 0,-0.78 -0.63,-1.42 -1.42,-1.42 -0.78,0 -1.42,0.64 -1.42,1.42"
       style="fill:#80cdc1;fill-opacity:1;fill-rule:nonzero;stroke:#80cdc1;stroke-width:0.70999998;stroke-linecap:round;stroke-linejoin:round;stroke-miterlimit:10;stroke-dasharray:none;stroke-opacity:1"
       id="path342"
       inkscape:connector-curvature="0" /><path
       d="m 216.49,343.46 c 0,0.78 0.64,1.42 1.42,1.42 0.78,0 1.42,-0.64 1.42,-1.42 0,-0.78 -0.64,-1.42 -1.42,-1.42 -0.78,0 -1.42,0.64 -1.42,1.42"
       style="fill:#dfc27d;fill-opacity:1;fill-rule:nonzero;stroke:#dfc27d;stroke-width:0.70999998;stroke-linecap:round;stroke-linejoin:round;stroke-miterlimit:10;stroke-dasharray:none;stroke-opacity:1"
       id="path344"
       inkscape:connector-curvature="0" /><path
       d="m 213.07,254.31 c 0,0.79 0.64,1.43 1.42,1.43 0.78,0 1.42,-0.64 1.42,-1.43 0,-0.78 -0.64,-1.42 -1.42,-1.42 -0.78,0 -1.42,0.64 -1.42,1.42"
       style="fill:#dfc27d;fill-opacity:1;fill-rule:nonzero;stroke:#dfc27d;stroke-width:0.70999998;stroke-linecap:round;stroke-linejoin:round;stroke-miterlimit:10;stroke-dasharray:none;stroke-opacity:1"
       id="path346"
       inkscape:connector-curvature="0" /><path
       d="m 219.06,340.12 c 0,0.78 0.64,1.42 1.42,1.42 0.78,0 1.42,-0.64 1.42,-1.42 0,-0.79 -0.64,-1.43 -1.42,-1.43 -0.78,0 -1.42,0.64 -1.42,1.43"
       style="fill:#dfc27d;fill-opacity:1;fill-rule:nonzero;stroke:#dfc27d;stroke-width:0.70999998;stroke-linecap:round;stroke-linejoin:round;stroke-miterlimit:10;stroke-dasharray:none;stroke-opacity:1"
       id="path348"
       inkscape:connector-curvature="0" /><path
       d="m 220.15,324.83 c 0,0.78 0.64,1.42 1.42,1.42 0.79,0 1.43,-0.64 1.43,-1.42 0,-0.78 -0.64,-1.42 -1.43,-1.42 -0.78,0 -1.42,0.64 -1.42,1.42"
       style="fill:#dfc27d;fill-opacity:1;fill-rule:nonzero;stroke:#dfc27d;stroke-width:0.70999998;stroke-linecap:round;stroke-linejoin:round;stroke-miterlimit:10;stroke-dasharray:none;stroke-opacity:1"
       id="path350"
       inkscape:connector-curvature="0" /><path
       d="m 222.76,359.23 c 0,0.78 0.64,1.42 1.42,1.42 0.78,0 1.42,-0.64 1.42,-1.42 0,-0.78 -0.64,-1.42 -1.42,-1.42 -0.78,0 -1.42,0.64 -1.42,1.42"
       style="fill:#dfc27d;fill-opacity:1;fill-rule:nonzero;stroke:#dfc27d;stroke-width:0.70999998;stroke-linecap:round;stroke-linejoin:round;stroke-miterlimit:10;stroke-dasharray:none;stroke-opacity:1"
       id="path352"
       inkscape:connector-curvature="0" /><path
       d="m 248.89,263.54 c 0,0.78 0.64,1.42 1.42,1.42 0.78,0 1.42,-0.64 1.42,-1.42 0,-0.79 -0.64,-1.43 -1.42,-1.43 -0.78,0 -1.42,0.64 -1.42,1.43"
       style="fill:#a6611a;fill-opacity:0.8;fill-rule:nonzero;stroke:#a6611a;stroke-width:0.70999998;stroke-linecap:round;stroke-linejoin:round;stroke-miterlimit:10;stroke-dasharray:none;stroke-opacity:0.8"
       id="path354"
       inkscape:connector-curvature="0" /><path
       d="m 217.44,271.68 c 0,0.78 0.64,1.42 1.42,1.42 0.78,0 1.42,-0.64 1.42,-1.42 0,-0.78 -0.64,-1.42 -1.42,-1.42 -0.78,0 -1.42,0.64 -1.42,1.42"
       style="fill:#dfc27d;fill-opacity:1;fill-rule:nonzero;stroke:#dfc27d;stroke-width:0.70999998;stroke-linecap:round;stroke-linejoin:round;stroke-miterlimit:10;stroke-dasharray:none;stroke-opacity:1"
       id="path356"
       inkscape:connector-curvature="0" /><path
       d="m 313.16,252.77 c 0,0.79 0.64,1.43 1.42,1.43 0.79,0 1.43,-0.64 1.43,-1.43 0,-0.78 -0.64,-1.42 -1.43,-1.42 -0.78,0 -1.42,0.64 -1.42,1.42"
       style="fill:#018571;fill-opacity:1;fill-rule:nonzero;stroke:#018571;stroke-width:0.70999998;stroke-linecap:round;stroke-linejoin:round;stroke-miterlimit:10;stroke-dasharray:none;stroke-opacity:1"
       id="path358"
       inkscape:connector-curvature="0" /><path
       d="m 277.74,264.83 c 0,0.78 0.64,1.42 1.42,1.42 0.79,0 1.43,-0.64 1.43,-1.42 0,-0.78 -0.64,-1.42 -1.43,-1.42 -0.78,0 -1.42,0.64 -1.42,1.42"
       style="fill:#80cdc1;fill-opacity:1;fill-rule:nonzero;stroke:#80cdc1;stroke-width:0.70999998;stroke-linecap:round;stroke-linejoin:round;stroke-miterlimit:10;stroke-dasharray:none;stroke-opacity:1"
       id="path360"
       inkscape:connector-curvature="0" /><path
       d="m 308.44,238.62 c 0,0.78 0.64,1.42 1.42,1.42 0.78,0 1.42,-0.64 1.42,-1.42 0,-0.78 -0.64,-1.42 -1.42,-1.42 -0.78,0 -1.42,0.64 -1.42,1.42"
       style="fill:#018571;fill-opacity:1;fill-rule:nonzero;stroke:#018571;stroke-width:0.70999998;stroke-linecap:round;stroke-linejoin:round;stroke-miterlimit:10;stroke-dasharray:none;stroke-opacity:1"
       id="path362"
       inkscape:connector-curvature="0" /><path
       d="m 281.8,305.72 c 0,0.78 0.64,1.42 1.42,1.42 0.78,0 1.42,-0.64 1.42,-1.42 0,-0.78 -0.64,-1.42 -1.42,-1.42 -0.78,0 -1.42,0.64 -1.42,1.42"
       style="fill:#80cdc1;fill-opacity:1;fill-rule:nonzero;stroke:#80cdc1;stroke-width:0.70999998;stroke-linecap:round;stroke-linejoin:round;stroke-miterlimit:10;stroke-dasharray:none;stroke-opacity:1"
       id="path364"
       inkscape:connector-curvature="0" /><path
       d="m 217.48,315.65 c 0,0.79 0.64,1.43 1.42,1.43 0.78,0 1.42,-0.64 1.42,-1.43 0,-0.78 -0.64,-1.42 -1.42,-1.42 -0.78,0 -1.42,0.64 -1.42,1.42"
       style="fill:#dfc27d;fill-opacity:1;fill-rule:nonzero;stroke:#dfc27d;stroke-width:0.70999998;stroke-linecap:round;stroke-linejoin:round;stroke-miterlimit:10;stroke-dasharray:none;stroke-opacity:1"
       id="path366"
       inkscape:connector-curvature="0" /><path
       d="m 304.21,222.58 c 0,0.78 0.64,1.42 1.42,1.42 0.78,0 1.42,-0.64 1.42,-1.42 0,-0.78 -0.64,-1.42 -1.42,-1.42 -0.78,0 -1.42,0.64 -1.42,1.42"
       style="fill:#018571;fill-opacity:1;fill-rule:nonzero;stroke:#018571;stroke-width:0.70999998;stroke-linecap:round;stroke-linejoin:round;stroke-miterlimit:10;stroke-dasharray:none;stroke-opacity:1"
       id="path368"
       inkscape:connector-curvature="0" /><path
       d="m 306.57,270.6 c 0,0.78 0.64,1.42 1.42,1.42 0.79,0 1.43,-0.64 1.43,-1.42 0,-0.78 -0.64,-1.42 -1.43,-1.42 -0.78,0 -1.42,0.64 -1.42,1.42"
       style="fill:#018571;fill-opacity:1;fill-rule:nonzero;stroke:#018571;stroke-width:0.70999998;stroke-linecap:round;stroke-linejoin:round;stroke-miterlimit:10;stroke-dasharray:none;stroke-opacity:1"
       id="path370"
       inkscape:connector-curvature="0" /><path
       d="m 315.49,217.82 c 0,0.78 0.64,1.42 1.42,1.42 0.79,0 1.43,-0.64 1.43,-1.42 0,-0.78 -0.64,-1.42 -1.43,-1.42 -0.78,0 -1.42,0.64 -1.42,1.42"
       style="fill:#018571;fill-opacity:1;fill-rule:nonzero;stroke:#018571;stroke-width:0.70999998;stroke-linecap:round;stroke-linejoin:round;stroke-miterlimit:10;stroke-dasharray:none;stroke-opacity:1"
       id="path372"
       inkscape:connector-curvature="0" /><path
       d="m 305.64,217.99 c 0,0.78 0.64,1.42 1.43,1.42 0.78,0 1.42,-0.64 1.42,-1.42 0,-0.79 -0.64,-1.42 -1.42,-1.42 -0.79,0 -1.43,0.63 -1.43,1.42"
       style="fill:#018571;fill-opacity:1;fill-rule:nonzero;stroke:#018571;stroke-width:0.70999998;stroke-linecap:round;stroke-linejoin:round;stroke-miterlimit:10;stroke-dasharray:none;stroke-opacity:1"
       id="path374"
       inkscape:connector-curvature="0" /><path
       d="m 279.12,288.65 c 0,0.78 0.64,1.42 1.42,1.42 0.79,0 1.42,-0.64 1.42,-1.42 0,-0.79 -0.63,-1.43 -1.42,-1.43 -0.78,0 -1.42,0.64 -1.42,1.43"
       style="fill:#80cdc1;fill-opacity:1;fill-rule:nonzero;stroke:#80cdc1;stroke-width:0.70999998;stroke-linecap:round;stroke-linejoin:round;stroke-miterlimit:10;stroke-dasharray:none;stroke-opacity:1"
       id="path376"
       inkscape:connector-curvature="0" /><path
       d="m 216.48,258.07 c 0,0.78 0.64,1.42 1.42,1.42 0.79,0 1.42,-0.64 1.42,-1.42 0,-0.78 -0.63,-1.42 -1.42,-1.42 -0.78,0 -1.42,0.64 -1.42,1.42"
       style="fill:#dfc27d;fill-opacity:1;fill-rule:nonzero;stroke:#dfc27d;stroke-width:0.70999998;stroke-linecap:round;stroke-linejoin:round;stroke-miterlimit:10;stroke-dasharray:none;stroke-opacity:1"
       id="path378"
       inkscape:connector-curvature="0" /><path
       d="m 282.16,213.13 c 0,0.78 0.64,1.42 1.42,1.42 0.79,0 1.42,-0.64 1.42,-1.42 0,-0.78 -0.63,-1.42 -1.42,-1.42 -0.78,0 -1.42,0.64 -1.42,1.42"
       style="fill:#80cdc1;fill-opacity:1;fill-rule:nonzero;stroke:#80cdc1;stroke-width:0.70999998;stroke-linecap:round;stroke-linejoin:round;stroke-miterlimit:10;stroke-dasharray:none;stroke-opacity:1"
       id="path380"
       inkscape:connector-curvature="0" /><path
       d="m 313.77,249.42 c 0,0.78 0.64,1.42 1.42,1.42 0.79,0 1.43,-0.64 1.43,-1.42 0,-0.78 -0.64,-1.42 -1.43,-1.42 -0.78,0 -1.42,0.64 -1.42,1.42"
       style="fill:#018571;fill-opacity:1;fill-rule:nonzero;stroke:#018571;stroke-width:0.70999998;stroke-linecap:round;stroke-linejoin:round;stroke-miterlimit:10;stroke-dasharray:none;stroke-opacity:1"
       id="path382"
       inkscape:connector-curvature="0" /><path
       d="m 216.51,314.9 c 0,0.78 0.64,1.42 1.43,1.42 0.78,0 1.42,-0.64 1.42,-1.42 0,-0.78 -0.64,-1.42 -1.42,-1.42 -0.79,0 -1.43,0.64 -1.43,1.42"
       style="fill:#dfc27d;fill-opacity:1;fill-rule:nonzero;stroke:#dfc27d;stroke-width:0.70999998;stroke-linecap:round;stroke-linejoin:round;stroke-miterlimit:10;stroke-dasharray:none;stroke-opacity:1"
       id="path384"
       inkscape:connector-curvature="0" /><path
       d="m 310.42,273.53 c 0,0.78 0.64,1.42 1.42,1.42 0.79,0 1.43,-0.64 1.43,-1.42 0,-0.78 -0.64,-1.42 -1.43,-1.42 -0.78,0 -1.42,0.64 -1.42,1.42"
       style="fill:#018571;fill-opacity:1;fill-rule:nonzero;stroke:#018571;stroke-width:0.70999998;stroke-linecap:round;stroke-linejoin:round;stroke-miterlimit:10;stroke-dasharray:none;stroke-opacity:1"
       id="path386"
       inkscape:connector-curvature="0" /><path
       d="m 279.39,205.7 c 0,0.78 0.63,1.42 1.42,1.42 0.78,0 1.42,-0.64 1.42,-1.42 0,-0.79 -0.64,-1.43 -1.42,-1.43 -0.79,0 -1.42,0.64 -1.42,1.43"
       style="fill:#80cdc1;fill-opacity:1;fill-rule:nonzero;stroke:#80cdc1;stroke-width:0.70999998;stroke-linecap:round;stroke-linejoin:round;stroke-miterlimit:10;stroke-dasharray:none;stroke-opacity:1"
       id="path388"
       inkscape:connector-curvature="0" /><path
       d="m 281.51,226.29 c 0,0.78 0.64,1.42 1.42,1.42 0.78,0 1.42,-0.64 1.42,-1.42 0,-0.78 -0.64,-1.42 -1.42,-1.42 -0.78,0 -1.42,0.64 -1.42,1.42"
       style="fill:#80cdc1;fill-opacity:1;fill-rule:nonzero;stroke:#80cdc1;stroke-width:0.70999998;stroke-linecap:round;stroke-linejoin:round;stroke-miterlimit:10;stroke-dasharray:none;stroke-opacity:1"
       id="path390"
       inkscape:connector-curvature="0" /><path
       d="m 213.9,307.96 c 0,0.78 0.64,1.42 1.42,1.42 0.78,0 1.42,-0.64 1.42,-1.42 0,-0.78 -0.64,-1.42 -1.42,-1.42 -0.78,0 -1.42,0.64 -1.42,1.42"
       style="fill:#dfc27d;fill-opacity:1;fill-rule:nonzero;stroke:#dfc27d;stroke-width:0.70999998;stroke-linecap:round;stroke-linejoin:round;stroke-miterlimit:10;stroke-dasharray:none;stroke-opacity:1"
       id="path392"
       inkscape:connector-curvature="0" /><path
       d="m 216.15,162.54 c 0,0.78 0.63,1.42 1.42,1.42 0.78,0 1.42,-0.64 1.42,-1.42 0,-0.79 -0.64,-1.43 -1.42,-1.43 -0.79,0 -1.42,0.64 -1.42,1.43"
       style="fill:#dfc27d;fill-opacity:1;fill-rule:nonzero;stroke:#dfc27d;stroke-width:0.70999998;stroke-linecap:round;stroke-linejoin:round;stroke-miterlimit:10;stroke-dasharray:none;stroke-opacity:1"
       id="path394"
       inkscape:connector-curvature="0" /><path
       d="m 254.66,210.04 c 0,0.78 0.64,1.42 1.42,1.42 0.78,0 1.42,-0.64 1.42,-1.42 0,-0.78 -0.64,-1.42 -1.42,-1.42 -0.78,0 -1.42,0.64 -1.42,1.42"
       style="fill:#a6611a;fill-opacity:0.8;fill-rule:nonzero;stroke:#a6611a;stroke-width:0.70999998;stroke-linecap:round;stroke-linejoin:round;stroke-miterlimit:10;stroke-dasharray:none;stroke-opacity:0.8"
       id="path396"
       inkscape:connector-curvature="0" /><path
       d="m 201.84618,152.70618 127.77764,0 0,223.12834 -127.77764,0 0,-223.12834 z"
       style="fill:none;stroke:#000000;stroke-width:0.80000001;stroke-linecap:round;stroke-linejoin:round;stroke-miterlimit:10;stroke-dasharray:none;stroke-opacity:1"
       id="path398"
       inkscape:connector-curvature="0" /><g
       id="g400" /><g
       id="g596" /><g
       id="g598"><g
         id="g600"
         clip-path="url(#clipPath602)" /></g><g
       id="g620"><g
         id="g622"
         clip-path="url(#clipPath624)" /></g><g
       id="g628"><g
         id="g630"
         clip-path="url(#clipPath632)" /></g><g
       id="g636" /><g
       id="g638"><g
         id="g640"
         clip-path="url(#clipPath642)" /></g><g
       id="g660"><g
         id="g662"
         clip-path="url(#clipPath664)" /></g><g
       id="g668"><g
         id="g670"
         clip-path="url(#clipPath672)" /></g><g
       id="g676" /><g
       id="g678"><g
         id="g680"
         clip-path="url(#clipPath682)" /></g><g
       id="g700"><g
         id="g702"
         clip-path="url(#clipPath704)" /></g><g
       id="g708"><g
         id="g710"
         clip-path="url(#clipPath712)" /></g><g
       id="g716" /><g
       id="g718" /><g
       id="g720" /><g
       id="g722" /><g
       id="g724" /><g
       id="g726" /><g
       id="g728" /><g
       id="g730" /><g
       id="g732" /><g
       id="g734" /><g
       id="g736" /><g
       id="g748" /><g
       id="g768" /><g
       id="g770" /><g
       id="g772" /><g
       id="g774" /><g
       id="g776" /><g
       id="g778" /><g
       id="g780" /><path
       inkscape:connector-curvature="0"
       id="path784"
       style="fill:none;stroke:#000000;stroke-width:1.07000005;stroke-linecap:butt;stroke-linejoin:round;stroke-miterlimit:10;stroke-dasharray:none;stroke-opacity:1"
       d="m 220.1,149.71 0,2.99" /><path
       inkscape:connector-curvature="0"
       id="path786"
       style="fill:none;stroke:#000000;stroke-width:1.07000005;stroke-linecap:butt;stroke-linejoin:round;stroke-miterlimit:10;stroke-dasharray:none;stroke-opacity:1"
       d="m 250.52,149.71 0,2.99" /><path
       inkscape:connector-curvature="0"
       id="path788"
       style="fill:none;stroke:#000000;stroke-width:1.07000005;stroke-linecap:butt;stroke-linejoin:round;stroke-miterlimit:10;stroke-dasharray:none;stroke-opacity:1"
       d="m 280.95,149.71 0,2.99" /><path
       inkscape:connector-curvature="0"
       id="path790"
       style="fill:none;stroke:#000000;stroke-width:1.07000005;stroke-linecap:butt;stroke-linejoin:round;stroke-miterlimit:10;stroke-dasharray:none;stroke-opacity:1"
       d="m 311.37,149.71 0,2.99" /><g
       id="g792" /><text
       id="text796"
       style="font-variant:normal;font-weight:normal;font-size:10px;font-family:Helvetica;-inkscape-font-specification:Helvetica;writing-mode:lr-tb;fill:#000000;fill-opacity:1;fill-rule:nonzero;stroke:none"
       transform="matrix(0,1,1,0,0,0)"
       x="76.23999"
       y="222.655"><tspan
         id="tspan798"
         sodipodi:role="line"
         x="76.23999"
         y="222.655">no hepatopathy</tspan></text>
<text
       id="text800"
       style="font-variant:normal;font-weight:normal;font-size:10px;font-family:Helvetica;-inkscape-font-specification:Helvetica;writing-mode:lr-tb;fill:#000000;fill-opacity:1;fill-rule:nonzero;stroke:none"
       transform="matrix(0,1,1,0,0,0)"
       x="30.06813"
       y="253.075"><tspan
         id="tspan802"
         sodipodi:role="line"
         x="30.06813"
         y="253.075">no change in hepatopathy</tspan></text>
<text
       id="text804"
       style="font-variant:normal;font-weight:normal;font-size:10px;font-family:Helvetica;-inkscape-font-specification:Helvetica;writing-mode:lr-tb;fill:#000000;fill-opacity:1;fill-rule:nonzero;stroke:none"
       transform="matrix(0,1,1,0,0,0)"
       x="113.71515"
       y="284.495"><tspan
         id="tspan806"
         sodipodi:role="line"
         x="113.71515"
         y="284.495">fibrosis</tspan></text>
<text
       id="text808"
       style="font-variant:normal;font-weight:normal;font-size:10px;font-family:Helvetica;-inkscape-font-specification:Helvetica;writing-mode:lr-tb;fill:#000000;fill-opacity:1;fill-rule:nonzero;stroke:none"
       transform="matrix(0,1,1,0,0,0)"
       x="108.14874"
       y="314.89999"><tspan
         id="tspan810"
         sodipodi:role="line"
         x="108.14874"
         y="314.89999">cirrhosis</tspan></text>
<g
       id="g812" /><g
       id="g814" /><g
       id="g816" /><g
       id="g818" /><g
       id="g820" /><g
       id="g822" /><g
       id="g824" /><g
       id="g836" /><g
       id="g856" /><g
       id="g858" /><g
       id="g860" /><g
       id="g862" /><g
       id="g864" /><g
       id="g866" /><g
       id="g868" /><g
       id="g896" /><g
       id="g912" /><g
       id="g914" /><g
       id="g916" /><g
       id="g918" /><g
       id="g920" /><g
       id="g922" /><g
       id="g924" /><text
       id="text928"
       style="font-variant:normal;font-weight:normal;font-size:10px;font-family:Helvetica;-inkscape-font-specification:Helvetica;writing-mode:lr-tb;fill:#000000;fill-opacity:1;fill-rule:nonzero;stroke:none"
       transform="scale(1,-1)"
       x="179.78"
       y="-215.21001"><tspan
         id="tspan930"
         sodipodi:role="line"
         y="-215.21001"
         x="179.78 185.34 190.89999">500</tspan></text>
<text
       id="text932"
       style="font-variant:normal;font-weight:normal;font-size:10px;font-family:Helvetica;-inkscape-font-specification:Helvetica;writing-mode:lr-tb;fill:#000000;fill-opacity:1;fill-rule:nonzero;stroke:none"
       transform="scale(1,-1)"
       x="174.22"
       y="-302.04001"><tspan
         id="tspan934"
         sodipodi:role="line"
         y="-302.04001"
         x="174.22 179.78 185.34 190.89999">1000</tspan></text>
<g
       id="g936" /><g
       id="g938"
       style="stroke:#000000"><path
         d="m 198.86,218.8 2.98,0"
         style="fill:none;stroke:#000000;stroke-width:1.07000005;stroke-linecap:butt;stroke-linejoin:round;stroke-miterlimit:10;stroke-dasharray:none;stroke-opacity:1"
         id="path940"
         inkscape:connector-curvature="0" /><path
         d="m 198.86,305.63 2.98,0"
         style="fill:none;stroke:#000000;stroke-width:1.07000005;stroke-linecap:butt;stroke-linejoin:round;stroke-miterlimit:10;stroke-dasharray:none;stroke-opacity:1"
         id="path942"
         inkscape:connector-curvature="0" /></g><g
       id="g944" /><g
       id="g946" /><g
       id="g948" /><g
       id="g950" /><g
       id="g952" /><g
       id="g954" /><g
       id="g956" /><g
       id="g972" /><g
       id="g982" /><g
       id="g984" /><g
       id="g986" /><g
       id="g988" /><g
       id="g990" /><g
       id="g992" /><g
       id="g994" /><g
       id="g996" /><g
       id="g998" /><g
       id="g1000" /><g
       id="g1002" /><g
       id="g1010" /><g
       id="g1018" /><g
       id="g1020" /><g
       id="g1022" /><g
       id="g1024" /><g
       id="g1026" /><g
       id="g1028" /><g
       id="g1030" /><g
       id="g1032" /><g
       id="g1034" /><g
       id="g1036" /><path
       d="m 311.87662,367.28856 -92.31162,0"
       style="fill:none;stroke:#000000;stroke-width:0.80000001;stroke-linecap:butt;stroke-linejoin:round;stroke-miterlimit:10;stroke-dasharray:none;stroke-opacity:1"
       id="path276-5"
       inkscape:connector-curvature="0" /><text
       id="text932-3"
       style="font-variant:normal;font-weight:normal;font-size:10px;font-family:Helvetica;-inkscape-font-specification:Helvetica;writing-mode:lr-tb;fill:#000000;fill-opacity:1;fill-rule:nonzero;stroke:none"
       x="259.9191"
       y="-365.04709"
       transform="scale(1,-1)"><tspan
         id="tspan934-5"
         sodipodi:role="line"
         x="259.9191"
         y="-365.04709">***</tspan></text>
</g></svg>