<?xml version="1.0" encoding="UTF-8" standalone="no"?>
<!-- Created with Inkscape (http://www.inkscape.org/) -->

<svg
   xmlns:dc="http://purl.org/dc/elements/1.1/"
   xmlns:cc="http://creativecommons.org/ns#"
   xmlns:rdf="http://www.w3.org/1999/02/22-rdf-syntax-ns#"
   xmlns:svg="http://www.w3.org/2000/svg"
   xmlns="http://www.w3.org/2000/svg"
   xmlns:sodipodi="http://sodipodi.sourceforge.net/DTD/sodipodi-0.dtd"
   xmlns:inkscape="http://www.inkscape.org/namespaces/inkscape"
   id="svg2"
   version="1.1"
   inkscape:version="0.91 r13725"
   xml:space="preserve"
   width="261.28839"
   height="251.40831"
   viewBox="0 0 261.28839 251.40831"
   sodipodi:docname="figure6.svg"><metadata
     id="metadata8"><rdf:RDF><cc:Work
         rdf:about=""><dc:format>image/svg+xml</dc:format><dc:type
           rdf:resource="http://purl.org/dc/dcmitype/StillImage" /><dc:title></dc:title></cc:Work></rdf:RDF></metadata><defs
     id="defs6"><clipPath
       clipPathUnits="userSpaceOnUse"
       id="clipPath38"><path
         d="m 36.45,261.92 166,0 0,108.63 -166,0 0,-108.63 z"
         id="path40"
         inkscape:connector-curvature="0" /></clipPath><clipPath
       clipPathUnits="userSpaceOnUse"
       id="clipPath182"><path
         d="m 36.45,147.31 166,0 0,108.63 -166,0 0,-108.63 z"
         id="path184"
         inkscape:connector-curvature="0" /></clipPath><clipPath
       clipPathUnits="userSpaceOnUse"
       id="clipPath332"><path
         d="m 36.45,32.7 166,0 0,108.63 -166,0 0,-108.63 z"
         id="path334"
         inkscape:connector-curvature="0" /></clipPath><clipPath
       clipPathUnits="userSpaceOnUse"
       id="clipPath484"><path
         d="m 202.45,261.92 18.71,0 0,108.63 -18.71,0 0,-108.63 z"
         id="path486"
         inkscape:connector-curvature="0" /></clipPath><clipPath
       clipPathUnits="userSpaceOnUse"
       id="clipPath492"><path
         d="m 202.45,261.92 18.71,0 0,108.63 -18.71,0 0,-108.63 z"
         id="path494"
         inkscape:connector-curvature="0" /></clipPath><clipPath
       clipPathUnits="userSpaceOnUse"
       id="clipPath506"><path
         d="m 202.45,261.92 18.71,0 0,108.63 -18.71,0 0,-108.63 z"
         id="path508"
         inkscape:connector-curvature="0" /></clipPath><clipPath
       clipPathUnits="userSpaceOnUse"
       id="clipPath514"><path
         d="m 202.45,261.92 18.71,0 0,108.63 -18.71,0 0,-108.63 z"
         id="path516"
         inkscape:connector-curvature="0" /></clipPath><clipPath
       clipPathUnits="userSpaceOnUse"
       id="clipPath524"><path
         d="m 202.45,147.31 18.71,0 0,108.63 -18.71,0 0,-108.63 z"
         id="path526"
         inkscape:connector-curvature="0" /></clipPath><clipPath
       clipPathUnits="userSpaceOnUse"
       id="clipPath532"><path
         d="m 202.45,147.31 18.71,0 0,108.63 -18.71,0 0,-108.63 z"
         id="path534"
         inkscape:connector-curvature="0" /></clipPath><clipPath
       clipPathUnits="userSpaceOnUse"
       id="clipPath546"><path
         d="m 202.45,147.31 18.71,0 0,108.63 -18.71,0 0,-108.63 z"
         id="path548"
         inkscape:connector-curvature="0" /></clipPath><clipPath
       clipPathUnits="userSpaceOnUse"
       id="clipPath554"><path
         d="m 202.45,147.31 18.71,0 0,108.63 -18.71,0 0,-108.63 z"
         id="path556"
         inkscape:connector-curvature="0" /></clipPath><clipPath
       clipPathUnits="userSpaceOnUse"
       id="clipPath564"><path
         d="m 202.45,32.7 18.71,0 0,108.63 -18.71,0 0,-108.63 z"
         id="path566"
         inkscape:connector-curvature="0" /></clipPath><clipPath
       clipPathUnits="userSpaceOnUse"
       id="clipPath572"><path
         d="m 202.45,32.7 18.71,0 0,108.63 -18.71,0 0,-108.63 z"
         id="path574"
         inkscape:connector-curvature="0" /></clipPath><clipPath
       clipPathUnits="userSpaceOnUse"
       id="clipPath586"><path
         d="m 202.45,32.7 18.71,0 0,108.63 -18.71,0 0,-108.63 z"
         id="path588"
         inkscape:connector-curvature="0" /></clipPath><clipPath
       clipPathUnits="userSpaceOnUse"
       id="clipPath594"><path
         d="m 202.45,32.7 18.71,0 0,108.63 -18.71,0 0,-108.63 z"
         id="path596"
         inkscape:connector-curvature="0" /></clipPath></defs><sodipodi:namedview
     pagecolor="#ffffff"
     bordercolor="#666666"
     borderopacity="1"
     objecttolerance="10"
     gridtolerance="10"
     guidetolerance="10"
     inkscape:pageopacity="0"
     inkscape:pageshadow="2"
     inkscape:window-width="960"
     inkscape:window-height="981"
     id="namedview4"
     showgrid="false"
     fit-margin-top="10"
     fit-margin-left="10"
     fit-margin-right="10"
     fit-margin-bottom="10"
     inkscape:zoom="1.3587965"
     inkscape:cx="127.90599"
     inkscape:cy="224.03599"
     inkscape:window-x="0"
     inkscape:window-y="28"
     inkscape:window-maximized="0"
     inkscape:current-layer="g10" /><g
     id="g10"
     inkscape:groupmode="layer"
     inkscape:label="Rplot01"
     transform="matrix(1.25,0,0,-1.25,-2.2741176,248.53831)"><g
       id="g12" /><g
       id="g14" /><g
       id="g16" /><g
       id="g18" /><g
       id="g20" /><g
       id="g22" /><g
       id="g24" /><g
       id="g26" /><g
       id="g32" /><g
       id="g176" /><g
       id="g326" /><path
       d="m 36.45,32.7 166,0 0,108.63 -166,0 0,-108.63 z"
       style="fill:#ffffff;fill-opacity:1;fill-rule:nonzero;stroke:none"
       id="path336"
       inkscape:connector-curvature="0" /><path
       d="m 36.45,46.81 166,0"
       style="fill:none;stroke:#ebebeb;stroke-width:1.07000005;stroke-linecap:butt;stroke-linejoin:round;stroke-miterlimit:10;stroke-dasharray:none;stroke-opacity:1"
       id="path356"
       inkscape:connector-curvature="0" /><path
       d="m 36.45,64.91 166,0"
       style="fill:none;stroke:#ebebeb;stroke-width:1.07000005;stroke-linecap:butt;stroke-linejoin:round;stroke-miterlimit:10;stroke-dasharray:none;stroke-opacity:1"
       id="path358"
       inkscape:connector-curvature="0" /><path
       d="m 36.45,83.01 166,0"
       style="fill:none;stroke:#ebebeb;stroke-width:1.07000005;stroke-linecap:butt;stroke-linejoin:round;stroke-miterlimit:10;stroke-dasharray:none;stroke-opacity:1"
       id="path360"
       inkscape:connector-curvature="0" /><path
       d="m 36.45,101.11 166,0"
       style="fill:none;stroke:#ebebeb;stroke-width:1.07000005;stroke-linecap:butt;stroke-linejoin:round;stroke-miterlimit:10;stroke-dasharray:none;stroke-opacity:1"
       id="path362"
       inkscape:connector-curvature="0" /><path
       d="m 36.45,119.21 166,0"
       style="fill:none;stroke:#ebebeb;stroke-width:1.07000005;stroke-linecap:butt;stroke-linejoin:round;stroke-miterlimit:10;stroke-dasharray:none;stroke-opacity:1"
       id="path364"
       inkscape:connector-curvature="0" /><path
       d="m 36.45,137.32 166,0"
       style="fill:none;stroke:#ebebeb;stroke-width:1.07000005;stroke-linecap:butt;stroke-linejoin:round;stroke-miterlimit:10;stroke-dasharray:none;stroke-opacity:1"
       id="path366"
       inkscape:connector-curvature="0" /><path
       d="m 87.16,32.7 0,108.63"
       style="fill:none;stroke:#ebebeb;stroke-width:1.07000005;stroke-linecap:butt;stroke-linejoin:round;stroke-miterlimit:10;stroke-dasharray:none;stroke-opacity:1"
       id="path368"
       inkscape:connector-curvature="0" /><path
       d="m 153.78,32.7 0,108.63"
       style="fill:none;stroke:#ebebeb;stroke-width:1.07000005;stroke-linecap:butt;stroke-linejoin:round;stroke-miterlimit:10;stroke-dasharray:none;stroke-opacity:1"
       id="path370"
       inkscape:connector-curvature="0" /><path
       d="m 80.44,95.1 1.35,-0.56 1.35,-0.55 1.35,-0.55 1.35,-0.55 1.35,-0.55 1.35,-0.55 1.35,-0.55 1.35,-0.55 1.35,-0.55 1.35,-0.55 1.35,-0.55 1.35,-0.55 1.35,-0.56 1.35,-0.55 1.35,-0.55 1.35,-0.55 1.35,-0.55 1.35,-0.55 1.35,-0.55 1.35,-0.55 1.35,-0.55 1.35,-0.55 1.35,-0.55 1.35,-0.55 1.35,-0.56 1.35,-0.55 1.35,-0.55 1.35,-0.55 1.35,-0.55 1.35,-0.55 1.35,-0.55 1.35,-0.55 1.35,-0.55 1.35,-0.55 1.35,-0.55 1.35,-0.55 1.35,-0.56 1.35,-0.55 1.35,-0.55 1.35,-0.55 1.35,-0.55 1.35,-0.55 1.35,-0.55 1.35,-0.55 1.35,-0.55 1.35,-0.55 1.35,-0.55 1.35,-0.55 1.35,-0.56 1.35,-0.55 1.35,-0.55 1.35,-0.55 1.35,-0.55 1.35,-0.55 1.35,-0.55 1.35,-0.55 1.35,-0.55 1.35,-0.55 1.35,-0.55 1.35,-0.55 1.35,-0.56 1.35,-0.55 1.35,-0.55 1.35,-0.55 1.35,-0.55 1.35,-0.55 1.35,-0.55 1.35,-0.55 1.35,-0.55 1.35,-0.55 1.35,-0.55 1.35,-0.55 1.35,-0.56 1.35,-0.55 1.35,-0.55 1.35,-0.55 1.35,-0.55 1.35,-0.55 1.35,-0.55"
       style="fill:none;stroke:#000000;stroke-width:2.13000011;stroke-linecap:butt;stroke-linejoin:round;stroke-miterlimit:1;stroke-dasharray:none;stroke-opacity:1"
       id="path372"
       inkscape:connector-curvature="0" /><path
       d="m 114.41,55.83 1.02,-0.02 1.02,-0.03 1.02,-0.02 1.02,-0.02 1.01,-0.02 1.02,-0.03 1.02,-0.02 1.02,-0.02 1.02,-0.02 1.02,-0.03 1.02,-0.02 1.02,-0.02 1.02,-0.02 1.01,-0.02 1.02,-0.03 1.02,-0.02 1.02,-0.02 1.02,-0.02 1.02,-0.03 1.02,-0.02 1.02,-0.02 1.02,-0.02 1.02,-0.03 1.01,-0.02 1.02,-0.02 1.02,-0.02 1.02,-0.02 1.02,-0.03 1.02,-0.02 1.02,-0.02 1.02,-0.02 1.02,-0.03 1.01,-0.02 1.02,-0.02 1.02,-0.02 1.02,-0.03 1.02,-0.02 1.02,-0.02 1.02,-0.02 1.02,-0.02 1.02,-0.03 1.01,-0.02 1.02,-0.02 1.02,-0.02 1.02,-0.03 1.02,-0.02 1.02,-0.02 1.02,-0.02 1.02,-0.03 1.02,-0.02 1.02,-0.02 1.01,-0.02 1.02,-0.02 1.02,-0.03 1.02,-0.02 1.02,-0.02 1.02,-0.02 1.02,-0.03 1.02,-0.02 1.02,-0.02 1.01,-0.02 1.02,-0.03 1.02,-0.02 1.02,-0.02 1.02,-0.02 1.02,-0.02 1.02,-0.03 1.02,-0.02 1.02,-0.02 1.01,-0.02 1.02,-0.03 1.02,-0.02 1.02,-0.02 1.02,-0.02 1.02,-0.03 1.02,-0.02 1.02,-0.02 1.02,-0.02 1.01,-0.02"
       style="fill:none;stroke:#00c094;stroke-width:2.13000011;stroke-linecap:butt;stroke-linejoin:round;stroke-miterlimit:1;stroke-dasharray:none;stroke-opacity:1"
       id="path374"
       inkscape:connector-curvature="0" /><path
       d="m 44,93.35 1.41,-0.24 1.41,-0.24 1.41,-0.24 1.42,-0.24 1.41,-0.24 1.41,-0.24 1.41,-0.24 1.42,-0.24 1.41,-0.25 1.41,-0.24 1.41,-0.24 1.42,-0.24 1.41,-0.24 1.41,-0.24 1.41,-0.24 1.42,-0.24 1.41,-0.24 1.41,-0.24 1.41,-0.25 1.42,-0.24 1.41,-0.24 1.41,-0.24 1.41,-0.24 1.42,-0.24 1.41,-0.24 1.41,-0.24 1.41,-0.24 1.42,-0.24 1.41,-0.25 1.41,-0.24 1.41,-0.24 1.42,-0.24 1.41,-0.24 1.41,-0.24 1.41,-0.24 1.42,-0.24 1.41,-0.24 1.41,-0.24 1.41,-0.24 1.42,-0.25 1.41,-0.24 1.41,-0.24 1.42,-0.24 1.41,-0.24 1.41,-0.24 1.41,-0.24 1.42,-0.24 1.41,-0.24 1.41,-0.24 1.41,-0.25 1.42,-0.24 1.41,-0.24 1.41,-0.24 1.41,-0.24 1.42,-0.24 1.41,-0.24 1.41,-0.24 1.41,-0.24 1.42,-0.24 1.41,-0.25 1.41,-0.24 1.41,-0.24 1.42,-0.24 1.41,-0.24 1.41,-0.24 1.41,-0.24 1.42,-0.24 1.41,-0.24 1.41,-0.24 1.41,-0.25 1.42,-0.24 1.41,-0.24 1.41,-0.24 1.41,-0.24 1.42,-0.24 1.41,-0.24 1.41,-0.24 1.41,-0.24 1.42,-0.24"
       style="fill:none;stroke:#7f7f7f;stroke-width:2.13000011;stroke-linecap:butt;stroke-linejoin:round;stroke-miterlimit:1;stroke-dasharray:none;stroke-opacity:1"
       id="path376"
       inkscape:connector-curvature="0" /><path
       d="m 44,100 1.91,-0.6 1.91,-0.6 1.91,-0.61 1.91,-0.6 1.91,-0.6 1.91,-0.61 1.91,-0.6 1.91,-0.6 1.91,-0.6 1.91,-0.61 1.91,-0.6 1.91,-0.6 1.91,-0.61 1.91,-0.6 1.91,-0.6 1.91,-0.6 1.91,-0.61 1.91,-0.6 1.91,-0.6 1.91,-0.6 1.91,-0.61 1.91,-0.6 1.91,-0.6 1.91,-0.61 1.91,-0.6 1.91,-0.6 1.91,-0.6 1.91,-0.61 1.91,-0.6 1.91,-0.6 1.91,-0.6 1.91,-0.61 1.91,-0.6 1.91,-0.6 1.91,-0.61 1.91,-0.6 1.92,-0.6 1.91,-0.6 1.91,-0.61 1.91,-0.6 1.91,-0.6 1.91,-0.61 1.91,-0.6 1.91,-0.6 1.91,-0.6 1.91,-0.61 1.91,-0.6 1.91,-0.6 1.91,-0.6 1.91,-0.61 1.91,-0.6 1.91,-0.6 1.91,-0.61 1.91,-0.6 1.91,-0.6 1.91,-0.6 1.91,-0.61 1.91,-0.6 1.91,-0.6 1.91,-0.61 1.91,-0.6 1.91,-0.6 1.91,-0.6 1.91,-0.61 1.91,-0.6 1.91,-0.6 1.91,-0.6 1.91,-0.61 1.91,-0.6 1.91,-0.6 1.91,-0.61 1.91,-0.6 1.91,-0.6 1.91,-0.6 1.91,-0.61 1.91,-0.6 1.91,-0.6 1.91,-0.6 1.91,-0.61"
       style="fill:none;stroke:#000000;stroke-width:2.13000011;stroke-linecap:butt;stroke-linejoin:round;stroke-miterlimit:1;stroke-dasharray:8.54, 8.54;stroke-dashoffset:0;stroke-opacity:1"
       id="path378"
       inkscape:connector-curvature="0" /><path
       d="m 125.17,49.89 c 0,1.07 0.88,1.95 1.96,1.95 1.07,0 1.95,-0.88 1.95,-1.95 0,-1.08 -0.88,-1.96 -1.95,-1.96 -1.08,0 -1.96,0.88 -1.96,1.96"
       style="fill:none;stroke:#00c094;stroke-width:0.70999998;stroke-linecap:round;stroke-linejoin:round;stroke-miterlimit:10;stroke-dasharray:none;stroke-opacity:1"
       id="path380"
       inkscape:connector-curvature="0" /><path
       d="m 125.15,103.05 c 0,1.08 0.88,1.96 1.95,1.96 1.08,0 1.95,-0.88 1.95,-1.96 0,-1.07 -0.87,-1.95 -1.95,-1.95 -1.07,0 -1.95,0.88 -1.95,1.95"
       style="fill:none;stroke:#7f7f7f;stroke-width:0.70999998;stroke-linecap:round;stroke-linejoin:round;stroke-miterlimit:10;stroke-dasharray:none;stroke-opacity:1"
       id="path382"
       inkscape:connector-curvature="0" /><path
       d="m 118.91,136.39 c 0,1.08 0.88,1.96 1.95,1.96 1.08,0 1.96,-0.88 1.96,-1.96 0,-1.07 -0.88,-1.95 -1.96,-1.95 -1.07,0 -1.95,0.88 -1.95,1.95"
       style="fill:none;stroke:#7f7f7f;stroke-width:0.70999998;stroke-linecap:round;stroke-linejoin:round;stroke-miterlimit:10;stroke-dasharray:none;stroke-opacity:1"
       id="path384"
       inkscape:connector-curvature="0" /><path
       d="m 109.51,60.62 c 0,1.08 0.88,1.96 1.96,1.96 1.07,0 1.95,-0.88 1.95,-1.96 0,-1.07 -0.88,-1.95 -1.95,-1.95 -1.08,0 -1.96,0.88 -1.96,1.95"
       style="fill:none;stroke:#000000;stroke-width:0.70999998;stroke-linecap:round;stroke-linejoin:round;stroke-miterlimit:10;stroke-dasharray:none;stroke-opacity:1"
       id="path386"
       inkscape:connector-curvature="0" /><path
       d="m 153.63,49.89 c 0,1.07 0.88,1.95 1.96,1.95 1.07,0 1.95,-0.88 1.95,-1.95 0,-1.08 -0.88,-1.96 -1.95,-1.96 -1.08,0 -1.96,0.88 -1.96,1.96"
       style="fill:none;stroke:#7f7f7f;stroke-width:0.70999998;stroke-linecap:round;stroke-linejoin:round;stroke-miterlimit:10;stroke-dasharray:none;stroke-opacity:1"
       id="path388"
       inkscape:connector-curvature="0" /><path
       d="m 169.92,39.91 c 0,1.08 0.88,1.96 1.95,1.96 1.08,0 1.96,-0.88 1.96,-1.96 0,-1.07 -0.88,-1.95 -1.96,-1.95 -1.07,0 -1.95,0.88 -1.95,1.95"
       style="fill:none;stroke:#00c094;stroke-width:0.70999998;stroke-linecap:round;stroke-linejoin:round;stroke-miterlimit:10;stroke-dasharray:none;stroke-opacity:1"
       id="path390"
       inkscape:connector-curvature="0" /><path
       d="m 104.63,113.16 c 0,1.07 0.88,1.95 1.95,1.95 1.08,0 1.96,-0.88 1.96,-1.95 0,-1.08 -0.88,-1.96 -1.96,-1.96 -1.07,0 -1.95,0.88 -1.95,1.96"
       style="fill:none;stroke:#000000;stroke-width:0.70999998;stroke-linecap:round;stroke-linejoin:round;stroke-miterlimit:10;stroke-dasharray:none;stroke-opacity:1"
       id="path392"
       inkscape:connector-curvature="0" /><path
       d="m 135.05,68.45 c 0,1.08 0.88,1.96 1.95,1.96 1.08,0 1.96,-0.88 1.96,-1.96 0,-1.07 -0.88,-1.95 -1.96,-1.95 -1.07,0 -1.95,0.88 -1.95,1.95"
       style="fill:none;stroke:#7f7f7f;stroke-width:0.70999998;stroke-linecap:round;stroke-linejoin:round;stroke-miterlimit:10;stroke-dasharray:none;stroke-opacity:1"
       id="path394"
       inkscape:connector-curvature="0" /><path
       d="m 126.11,77.54 c 0,1.08 0.88,1.96 1.95,1.96 1.08,0 1.96,-0.88 1.96,-1.96 0,-1.07 -0.88,-1.95 -1.96,-1.95 -1.07,0 -1.95,0.88 -1.95,1.95"
       style="fill:none;stroke:#000000;stroke-width:0.70999998;stroke-linecap:round;stroke-linejoin:round;stroke-miterlimit:10;stroke-dasharray:none;stroke-opacity:1"
       id="path396"
       inkscape:connector-curvature="0" /><path
       d="m 137.84,59.36 c 0,1.07 0.87,1.95 1.95,1.95 1.08,0 1.95,-0.88 1.95,-1.95 0,-1.08 -0.87,-1.96 -1.95,-1.96 -1.08,0 -1.95,0.88 -1.95,1.96"
       style="fill:none;stroke:#7f7f7f;stroke-width:0.70999998;stroke-linecap:round;stroke-linejoin:round;stroke-miterlimit:10;stroke-dasharray:none;stroke-opacity:1"
       id="path398"
       inkscape:connector-curvature="0" /><path
       d="m 169.3,65.04 c 0,1.08 0.88,1.96 1.95,1.96 1.08,0 1.96,-0.88 1.96,-1.96 0,-1.07 -0.88,-1.95 -1.96,-1.95 -1.07,0 -1.95,0.88 -1.95,1.95"
       style="fill:none;stroke:#00c094;stroke-width:0.70999998;stroke-linecap:round;stroke-linejoin:round;stroke-miterlimit:10;stroke-dasharray:none;stroke-opacity:1"
       id="path400"
       inkscape:connector-curvature="0" /><path
       d="m 142.79,68.33 c 0,1.07 0.88,1.95 1.95,1.95 1.08,0 1.96,-0.88 1.96,-1.95 0,-1.08 -0.88,-1.96 -1.96,-1.96 -1.07,0 -1.95,0.88 -1.95,1.96"
       style="fill:none;stroke:#000000;stroke-width:0.70999998;stroke-linecap:round;stroke-linejoin:round;stroke-miterlimit:10;stroke-dasharray:none;stroke-opacity:1"
       id="path402"
       inkscape:connector-curvature="0" /><path
       d="m 100.23,127.55 c 0,1.08 0.88,1.96 1.96,1.96 1.07,0 1.95,-0.88 1.95,-1.96 0,-1.07 -0.88,-1.95 -1.95,-1.95 -1.08,0 -1.96,0.88 -1.96,1.95"
       style="fill:none;stroke:#7f7f7f;stroke-width:0.70999998;stroke-linecap:round;stroke-linejoin:round;stroke-miterlimit:10;stroke-dasharray:none;stroke-opacity:1"
       id="path404"
       inkscape:connector-curvature="0" /><path
       d="m 174.81,41.17 c 0,1.08 0.88,1.96 1.96,1.96 1.07,0 1.95,-0.88 1.95,-1.96 0,-1.07 -0.88,-1.95 -1.95,-1.95 -1.08,0 -1.96,0.88 -1.96,1.95"
       style="fill:none;stroke:#000000;stroke-width:0.70999998;stroke-linecap:round;stroke-linejoin:round;stroke-miterlimit:10;stroke-dasharray:none;stroke-opacity:1"
       id="path406"
       inkscape:connector-curvature="0" /><path
       d="m 125.07,84.36 c 0,1.08 0.88,1.96 1.95,1.96 1.08,0 1.96,-0.88 1.96,-1.96 0,-1.07 -0.88,-1.95 -1.96,-1.95 -1.07,0 -1.95,0.88 -1.95,1.95"
       style="fill:none;stroke:#7f7f7f;stroke-width:0.70999998;stroke-linecap:round;stroke-linejoin:round;stroke-miterlimit:10;stroke-dasharray:none;stroke-opacity:1"
       id="path408"
       inkscape:connector-curvature="0" /><path
       d="m 185.13,44.84 c 0,1.07 0.88,1.95 1.96,1.95 1.07,0 1.95,-0.88 1.95,-1.95 0,-1.08 -0.88,-1.96 -1.95,-1.96 -1.08,0 -1.96,0.88 -1.96,1.96"
       style="fill:none;stroke:#000000;stroke-width:0.70999998;stroke-linecap:round;stroke-linejoin:round;stroke-miterlimit:10;stroke-dasharray:none;stroke-opacity:1"
       id="path410"
       inkscape:connector-curvature="0" /><path
       d="m 143.43,113.41 c 0,1.07 0.88,1.95 1.96,1.95 1.07,0 1.95,-0.88 1.95,-1.95 0,-1.08 -0.88,-1.96 -1.95,-1.96 -1.08,0 -1.96,0.88 -1.96,1.96"
       style="fill:none;stroke:#7f7f7f;stroke-width:0.70999998;stroke-linecap:round;stroke-linejoin:round;stroke-miterlimit:10;stroke-dasharray:none;stroke-opacity:1"
       id="path412"
       inkscape:connector-curvature="0" /><path
       d="m 174.78,37.64 c 0,1.07 0.88,1.95 1.96,1.95 1.07,0 1.95,-0.88 1.95,-1.95 0,-1.08 -0.88,-1.96 -1.95,-1.96 -1.08,0 -1.96,0.88 -1.96,1.96"
       style="fill:none;stroke:#00c094;stroke-width:0.70999998;stroke-linecap:round;stroke-linejoin:round;stroke-miterlimit:10;stroke-dasharray:none;stroke-opacity:1"
       id="path414"
       inkscape:connector-curvature="0" /><path
       d="m 44.58,92.32 c 0,1.08 0.88,1.95 1.96,1.95 1.07,0 1.95,-0.87 1.95,-1.95 0,-1.07 -0.88,-1.95 -1.95,-1.95 -1.08,0 -1.96,0.88 -1.96,1.95"
       style="fill:none;stroke:#7f7f7f;stroke-width:0.70999998;stroke-linecap:round;stroke-linejoin:round;stroke-miterlimit:10;stroke-dasharray:none;stroke-opacity:1"
       id="path416"
       inkscape:connector-curvature="0" /><path
       d="m 68.08,89.04 c 0,1.07 0.88,1.95 1.95,1.95 1.08,0 1.96,-0.88 1.96,-1.95 0,-1.08 -0.88,-1.96 -1.96,-1.96 -1.07,0 -1.95,0.88 -1.95,1.96"
       style="fill:none;stroke:#7f7f7f;stroke-width:0.70999998;stroke-linecap:round;stroke-linejoin:round;stroke-miterlimit:10;stroke-dasharray:none;stroke-opacity:1"
       id="path418"
       inkscape:connector-curvature="0" /><path
       d="m 131.04,102.68 c 0,1.07 0.88,1.95 1.95,1.95 1.08,0 1.96,-0.88 1.96,-1.95 0,-1.08 -0.88,-1.96 -1.96,-1.96 -1.07,0 -1.95,0.88 -1.95,1.96"
       style="fill:none;stroke:#000000;stroke-width:0.70999998;stroke-linecap:round;stroke-linejoin:round;stroke-miterlimit:10;stroke-dasharray:none;stroke-opacity:1"
       id="path420"
       inkscape:connector-curvature="0" /><path
       d="m 135.3,79.69 c 0,1.08 0.88,1.96 1.96,1.96 1.07,0 1.95,-0.88 1.95,-1.96 0,-1.07 -0.88,-1.95 -1.95,-1.95 -1.08,0 -1.96,0.88 -1.96,1.95"
       style="fill:none;stroke:#000000;stroke-width:0.70999998;stroke-linecap:round;stroke-linejoin:round;stroke-miterlimit:10;stroke-dasharray:none;stroke-opacity:1"
       id="path422"
       inkscape:connector-curvature="0" /><path
       d="m 140.43,85.12 c 0,1.08 0.88,1.96 1.95,1.96 1.08,0 1.96,-0.88 1.96,-1.96 0,-1.07 -0.88,-1.95 -1.96,-1.95 -1.07,0 -1.95,0.88 -1.95,1.95"
       style="fill:none;stroke:#000000;stroke-width:0.70999998;stroke-linecap:round;stroke-linejoin:round;stroke-miterlimit:10;stroke-dasharray:none;stroke-opacity:1"
       id="path424"
       inkscape:connector-curvature="0" /><path
       d="m 174.71,67.19 c 0,1.07 0.87,1.95 1.95,1.95 1.08,0 1.95,-0.88 1.95,-1.95 0,-1.08 -0.87,-1.96 -1.95,-1.96 -1.08,0 -1.95,0.88 -1.95,1.96"
       style="fill:none;stroke:#00c094;stroke-width:0.70999998;stroke-linecap:round;stroke-linejoin:round;stroke-miterlimit:10;stroke-dasharray:none;stroke-opacity:1"
       id="path426"
       inkscape:connector-curvature="0" /><path
       d="m 153.49,61.38 c 0,1.08 0.88,1.96 1.95,1.96 1.08,0 1.96,-0.88 1.96,-1.96 0,-1.07 -0.88,-1.95 -1.96,-1.95 -1.07,0 -1.95,0.88 -1.95,1.95"
       style="fill:none;stroke:#7f7f7f;stroke-width:0.70999998;stroke-linecap:round;stroke-linejoin:round;stroke-miterlimit:10;stroke-dasharray:none;stroke-opacity:1"
       id="path428"
       inkscape:connector-curvature="0" /><path
       d="m 163.89,83.48 c 0,1.08 0.88,1.96 1.95,1.96 1.08,0 1.96,-0.88 1.96,-1.96 0,-1.07 -0.88,-1.95 -1.96,-1.95 -1.07,0 -1.95,0.88 -1.95,1.95"
       style="fill:none;stroke:#000000;stroke-width:0.70999998;stroke-linecap:round;stroke-linejoin:round;stroke-miterlimit:10;stroke-dasharray:none;stroke-opacity:1"
       id="path430"
       inkscape:connector-curvature="0" /><path
       d="m 180.85,66.81 c 0,1.08 0.88,1.96 1.95,1.96 1.08,0 1.96,-0.88 1.96,-1.96 0,-1.07 -0.88,-1.95 -1.96,-1.95 -1.07,0 -1.95,0.88 -1.95,1.95"
       style="fill:none;stroke:#00c094;stroke-width:0.70999998;stroke-linecap:round;stroke-linejoin:round;stroke-miterlimit:10;stroke-dasharray:none;stroke-opacity:1"
       id="path432"
       inkscape:connector-curvature="0" /><path
       d="m 112.46,62.9 c 0,1.07 0.87,1.95 1.95,1.95 1.08,0 1.95,-0.88 1.95,-1.95 0,-1.08 -0.87,-1.96 -1.95,-1.96 -1.08,0 -1.95,0.88 -1.95,1.96"
       style="fill:none;stroke:#00c094;stroke-width:0.70999998;stroke-linecap:round;stroke-linejoin:round;stroke-miterlimit:10;stroke-dasharray:none;stroke-opacity:1"
       id="path434"
       inkscape:connector-curvature="0" /><path
       d="m 178.28,44.84 c 0,1.07 0.88,1.95 1.96,1.95 1.07,0 1.95,-0.88 1.95,-1.95 0,-1.08 -0.88,-1.96 -1.95,-1.96 -1.08,0 -1.96,0.88 -1.96,1.96"
       style="fill:none;stroke:#00c094;stroke-width:0.70999998;stroke-linecap:round;stroke-linejoin:round;stroke-miterlimit:10;stroke-dasharray:none;stroke-opacity:1"
       id="path436"
       inkscape:connector-curvature="0" /><path
       d="m 166.56,58.48 c 0,1.07 0.88,1.95 1.95,1.95 1.08,0 1.96,-0.88 1.96,-1.95 0,-1.08 -0.88,-1.96 -1.96,-1.96 -1.07,0 -1.95,0.88 -1.95,1.96"
       style="fill:none;stroke:#00c094;stroke-width:0.70999998;stroke-linecap:round;stroke-linejoin:round;stroke-miterlimit:10;stroke-dasharray:none;stroke-opacity:1"
       id="path438"
       inkscape:connector-curvature="0" /><path
       d="m 192.95,57.59 c 0,1.08 0.88,1.96 1.95,1.96 1.08,0 1.96,-0.88 1.96,-1.96 0,-1.07 -0.88,-1.95 -1.96,-1.95 -1.07,0 -1.95,0.88 -1.95,1.95"
       style="fill:none;stroke:#00c094;stroke-width:0.70999998;stroke-linecap:round;stroke-linejoin:round;stroke-miterlimit:10;stroke-dasharray:none;stroke-opacity:1"
       id="path440"
       inkscape:connector-curvature="0" /><path
       d="m 119.53,56.96 c 0,1.08 0.88,1.96 1.95,1.96 1.08,0 1.96,-0.88 1.96,-1.96 0,-1.07 -0.88,-1.95 -1.96,-1.95 -1.07,0 -1.95,0.88 -1.95,1.95"
       style="fill:none;stroke:#7f7f7f;stroke-width:0.70999998;stroke-linecap:round;stroke-linejoin:round;stroke-miterlimit:10;stroke-dasharray:none;stroke-opacity:1"
       id="path442"
       inkscape:connector-curvature="0" /><path
       d="m 120.52,72.11 c 0,1.08 0.88,1.96 1.96,1.96 1.07,0 1.95,-0.88 1.95,-1.96 0,-1.07 -0.88,-1.95 -1.95,-1.95 -1.08,0 -1.96,0.88 -1.96,1.95"
       style="fill:none;stroke:#000000;stroke-width:0.70999998;stroke-linecap:round;stroke-linejoin:round;stroke-miterlimit:10;stroke-dasharray:none;stroke-opacity:1"
       id="path444"
       inkscape:connector-curvature="0" /><path
       d="m 100.41,63.02 c 0,1.08 0.88,1.96 1.96,1.96 1.07,0 1.95,-0.88 1.95,-1.96 0,-1.07 -0.88,-1.95 -1.95,-1.95 -1.08,0 -1.96,0.88 -1.96,1.95"
       style="fill:none;stroke:#000000;stroke-width:0.70999998;stroke-linecap:round;stroke-linejoin:round;stroke-miterlimit:10;stroke-dasharray:none;stroke-opacity:1"
       id="path446"
       inkscape:connector-curvature="0" /><path
       d="m 151.89,59.11 c 0,1.07 0.88,1.95 1.96,1.95 1.07,0 1.95,-0.88 1.95,-1.95 0,-1.08 -0.88,-1.96 -1.95,-1.96 -1.08,0 -1.96,0.88 -1.96,1.96"
       style="fill:none;stroke:#000000;stroke-width:0.70999998;stroke-linecap:round;stroke-linejoin:round;stroke-miterlimit:10;stroke-dasharray:none;stroke-opacity:1"
       id="path448"
       inkscape:connector-curvature="0" /><path
       d="m 88.11,119.09 c 0,1.08 0.88,1.96 1.96,1.96 1.07,0 1.95,-0.88 1.95,-1.96 0,-1.07 -0.88,-1.95 -1.95,-1.95 -1.08,0 -1.96,0.88 -1.96,1.95"
       style="fill:none;stroke:#7f7f7f;stroke-width:0.70999998;stroke-linecap:round;stroke-linejoin:round;stroke-miterlimit:10;stroke-dasharray:none;stroke-opacity:1"
       id="path450"
       inkscape:connector-curvature="0" /><path
       d="m 124.95,50.65 c 0,1.07 0.88,1.95 1.95,1.95 1.08,0 1.96,-0.88 1.96,-1.95 0,-1.08 -0.88,-1.96 -1.96,-1.96 -1.07,0 -1.95,0.88 -1.95,1.96"
       style="fill:none;stroke:#7f7f7f;stroke-width:0.70999998;stroke-linecap:round;stroke-linejoin:round;stroke-miterlimit:10;stroke-dasharray:none;stroke-opacity:1"
       id="path452"
       inkscape:connector-curvature="0" /><path
       d="m 84.46,81.33 c 0,1.08 0.88,1.96 1.95,1.96 1.08,0 1.96,-0.88 1.96,-1.96 0,-1.07 -0.88,-1.95 -1.96,-1.95 -1.07,0 -1.95,0.88 -1.95,1.95"
       style="fill:none;stroke:#7f7f7f;stroke-width:0.70999998;stroke-linecap:round;stroke-linejoin:round;stroke-miterlimit:10;stroke-dasharray:none;stroke-opacity:1"
       id="path454"
       inkscape:connector-curvature="0" /><path
       d="m 84.58,79.19 c 0,1.07 0.88,1.95 1.96,1.95 1.07,0 1.95,-0.88 1.95,-1.95 0,-1.08 -0.88,-1.96 -1.95,-1.96 -1.08,0 -1.96,0.88 -1.96,1.96"
       style="fill:none;stroke:#7f7f7f;stroke-width:0.70999998;stroke-linecap:round;stroke-linejoin:round;stroke-miterlimit:10;stroke-dasharray:none;stroke-opacity:1"
       id="path456"
       inkscape:connector-curvature="0" /><path
       d="m 138.79,57.97 c 0,1.08 0.88,1.96 1.96,1.96 1.07,0 1.95,-0.88 1.95,-1.96 0,-1.07 -0.88,-1.95 -1.95,-1.95 -1.08,0 -1.96,0.88 -1.96,1.95"
       style="fill:none;stroke:#000000;stroke-width:0.70999998;stroke-linecap:round;stroke-linejoin:round;stroke-miterlimit:10;stroke-dasharray:none;stroke-opacity:1"
       id="path458"
       inkscape:connector-curvature="0" /><path
       d="m 80.86,60.75 c 0,1.07 0.88,1.95 1.95,1.95 1.08,0 1.96,-0.88 1.96,-1.95 0,-1.08 -0.88,-1.96 -1.96,-1.96 -1.07,0 -1.95,0.88 -1.95,1.96"
       style="fill:none;stroke:#7f7f7f;stroke-width:0.70999998;stroke-linecap:round;stroke-linejoin:round;stroke-miterlimit:10;stroke-dasharray:none;stroke-opacity:1"
       id="path460"
       inkscape:connector-curvature="0" /><path
       d="m 108.7,69.46 c 0,1.08 0.88,1.96 1.96,1.96 1.07,0 1.95,-0.88 1.95,-1.96 0,-1.07 -0.88,-1.95 -1.95,-1.95 -1.08,0 -1.96,0.88 -1.96,1.95"
       style="fill:none;stroke:#7f7f7f;stroke-width:0.70999998;stroke-linecap:round;stroke-linejoin:round;stroke-miterlimit:10;stroke-dasharray:none;stroke-opacity:1"
       id="path462"
       inkscape:connector-curvature="0" /><path
       d="m 127.2,55.7 c 0,1.07 0.88,1.95 1.95,1.95 1.08,0 1.96,-0.88 1.96,-1.95 0,-1.08 -0.88,-1.96 -1.96,-1.96 -1.07,0 -1.95,0.88 -1.95,1.96"
       style="fill:none;stroke:#000000;stroke-width:0.70999998;stroke-linecap:round;stroke-linejoin:round;stroke-miterlimit:10;stroke-dasharray:none;stroke-opacity:1"
       id="path464"
       inkscape:connector-curvature="0" /><path
       d="m 75.15,94.34 c 0,1.08 0.88,1.96 1.96,1.96 1.07,0 1.95,-0.88 1.95,-1.96 0,-1.07 -0.88,-1.95 -1.95,-1.95 -1.08,0 -1.96,0.88 -1.96,1.95"
       style="fill:none;stroke:#7f7f7f;stroke-width:0.70999998;stroke-linecap:round;stroke-linejoin:round;stroke-miterlimit:10;stroke-dasharray:none;stroke-opacity:1"
       id="path466"
       inkscape:connector-curvature="0" /><path
       d="m 90.95,51.28 c 0,1.07 0.88,1.95 1.96,1.95 1.07,0 1.95,-0.88 1.95,-1.95 0,-1.08 -0.88,-1.96 -1.95,-1.96 -1.08,0 -1.96,0.88 -1.96,1.96"
       style="fill:none;stroke:#7f7f7f;stroke-width:0.70999998;stroke-linecap:round;stroke-linejoin:round;stroke-miterlimit:10;stroke-dasharray:none;stroke-opacity:1"
       id="path468"
       inkscape:connector-curvature="0" /><path
       d="m 153.62,51.53 c 0,1.08 0.88,1.95 1.95,1.95 1.08,0 1.96,-0.87 1.96,-1.95 0,-1.08 -0.88,-1.95 -1.96,-1.95 -1.07,0 -1.95,0.87 -1.95,1.95"
       style="fill:none;stroke:#00c094;stroke-width:0.70999998;stroke-linecap:round;stroke-linejoin:round;stroke-miterlimit:10;stroke-dasharray:none;stroke-opacity:1"
       id="path470"
       inkscape:connector-curvature="0" /><path
       d="m 42.04,86.64 c 0,1.07 0.88,1.95 1.96,1.95 1.07,0 1.95,-0.88 1.95,-1.95 0,-1.08 -0.88,-1.96 -1.95,-1.96 -1.08,0 -1.96,0.88 -1.96,1.96"
       style="fill:none;stroke:#7f7f7f;stroke-width:0.70999998;stroke-linecap:round;stroke-linejoin:round;stroke-miterlimit:10;stroke-dasharray:none;stroke-opacity:1"
       id="path472"
       inkscape:connector-curvature="0" /><path
       d="m 78.49,99.9 c 0,1.07 0.88,1.95 1.95,1.95 1.08,0 1.96,-0.88 1.96,-1.95 0,-1.08 -0.88,-1.96 -1.96,-1.96 -1.07,0 -1.95,0.88 -1.95,1.96"
       style="fill:none;stroke:#000000;stroke-width:0.70999998;stroke-linecap:round;stroke-linejoin:round;stroke-miterlimit:10;stroke-dasharray:none;stroke-opacity:1"
       id="path474"
       inkscape:connector-curvature="0" /><path
       d="m 36.45,32.7 166,0 0,108.63 -166,0 0,-108.63 z"
       style="fill:none;stroke:#000000;stroke-width:0.80000001;stroke-linecap:round;stroke-linejoin:round;stroke-miterlimit:10;stroke-dasharray:none;stroke-opacity:1"
       id="path476"
       inkscape:connector-curvature="0" /><g
       id="g478" /><g
       id="g480"><g
         id="g482"
         clip-path="url(#clipPath484)" /></g><g
       id="g502"><g
         id="g504"
         clip-path="url(#clipPath506)" /></g><g
       id="g510"><g
         id="g512"
         clip-path="url(#clipPath514)" /></g><g
       id="g518" /><g
       id="g520"><g
         id="g522"
         clip-path="url(#clipPath524)" /></g><g
       id="g542"><g
         id="g544"
         clip-path="url(#clipPath546)" /></g><g
       id="g550"><g
         id="g552"
         clip-path="url(#clipPath554)" /></g><g
       id="g558" /><g
       id="g560"><g
         id="g562"
         clip-path="url(#clipPath564)" /></g><g
       id="g582"><g
         id="g584"
         clip-path="url(#clipPath586)" /></g><g
       id="g590"><g
         id="g592"
         clip-path="url(#clipPath594)" /></g><g
       id="g598" /><g
       id="g600" /><g
       id="g602" /><g
       id="g604" /><g
       id="g606" /><g
       id="g608" /><g
       id="g610" /><g
       id="g612"
       style="stroke:#000000"><path
         d="m 87.16,29.71 0,2.99"
         style="fill:none;stroke:#000000;stroke-width:1.07000005;stroke-linecap:butt;stroke-linejoin:round;stroke-miterlimit:10;stroke-dasharray:none;stroke-opacity:1"
         id="path614"
         inkscape:connector-curvature="0" /><path
         d="m 153.78,29.71 0,2.99"
         style="fill:none;stroke:#000000;stroke-width:1.07000005;stroke-linecap:butt;stroke-linejoin:round;stroke-miterlimit:10;stroke-dasharray:none;stroke-opacity:1"
         id="path616"
         inkscape:connector-curvature="0" /></g><g
       id="g618" /><text
       id="text622"
       style="font-variant:normal;font-weight:normal;font-size:10px;font-family:Helvetica;-inkscape-font-specification:Helvetica;writing-mode:lr-tb;fill:#000000;fill-opacity:1;fill-rule:nonzero;stroke:none"
       transform="scale(1,-1)"
       x="78.82"
       y="-20.139999"><tspan
         id="tspan624"
         sodipodi:role="line"
         y="-20.139999"
         x="78.82 84.379997 89.940002">500</tspan></text>
<text
       id="text626"
       style="font-variant:normal;font-weight:normal;font-size:10px;font-family:Helvetica;-inkscape-font-specification:Helvetica;writing-mode:lr-tb;fill:#000000;fill-opacity:1;fill-rule:nonzero;stroke:none"
       transform="scale(1,-1)"
       x="142.66"
       y="-20.139999"><tspan
         id="tspan628"
         sodipodi:role="line"
         y="-20.139999"
         x="142.66 148.22 153.78 159.34">1000</tspan></text>
<g
       id="g630" /><g
       id="g632" /><g
       id="g634" /><g
       id="g636" /><g
       id="g638" /><g
       id="g640" /><g
       id="g642" /><g
       id="g662" /><g
       id="g674" /><g
       id="g676" /><g
       id="g678" /><g
       id="g680" /><g
       id="g682" /><g
       id="g684" /><g
       id="g686" /><g
       id="g710" /><g
       id="g724" /><g
       id="g726" /><g
       id="g728" /><g
       id="g730" /><g
       id="g732" /><g
       id="g734" /><g
       id="g736" /><g
       id="g738"
       style="fill:#000000"><text
         transform="matrix(1,0,0,-1,25.51,43.22)"
         style="font-variant:normal;font-weight:normal;font-size:10px;font-family:Helvetica;-inkscape-font-specification:Helvetica;writing-mode:lr-tb;fill:#000000;fill-opacity:1;fill-rule:nonzero;stroke:none"
         id="text740"><tspan
           x="0"
           y="0"
           id="tspan742"
           style="fill:#000000">2</tspan></text>
<text
         transform="matrix(1,0,0,-1,25.51,61.32)"
         style="font-variant:normal;font-weight:normal;font-size:10px;font-family:Helvetica;-inkscape-font-specification:Helvetica;writing-mode:lr-tb;fill:#000000;fill-opacity:1;fill-rule:nonzero;stroke:none"
         id="text744"><tspan
           x="0"
           y="0"
           id="tspan746"
           style="fill:#000000">3</tspan></text>
<text
         transform="matrix(1,0,0,-1,25.51,79.42)"
         style="font-variant:normal;font-weight:normal;font-size:10px;font-family:Helvetica;-inkscape-font-specification:Helvetica;writing-mode:lr-tb;fill:#000000;fill-opacity:1;fill-rule:nonzero;stroke:none"
         id="text748"><tspan
           x="0"
           y="0"
           id="tspan750"
           style="fill:#000000">4</tspan></text>
<text
         transform="matrix(1,0,0,-1,25.51,97.52)"
         style="font-variant:normal;font-weight:normal;font-size:10px;font-family:Helvetica;-inkscape-font-specification:Helvetica;writing-mode:lr-tb;fill:#000000;fill-opacity:1;fill-rule:nonzero;stroke:none"
         id="text752"><tspan
           x="0"
           y="0"
           id="tspan754"
           style="fill:#000000">5</tspan></text>
<text
         transform="matrix(1,0,0,-1,25.51,115.62)"
         style="font-variant:normal;font-weight:normal;font-size:10px;font-family:Helvetica;-inkscape-font-specification:Helvetica;writing-mode:lr-tb;fill:#000000;fill-opacity:1;fill-rule:nonzero;stroke:none"
         id="text756"><tspan
           x="0"
           y="0"
           id="tspan758"
           style="fill:#000000">6</tspan></text>
<text
         transform="matrix(1,0,0,-1,25.51,133.73)"
         style="font-variant:normal;font-weight:normal;font-size:10px;font-family:Helvetica;-inkscape-font-specification:Helvetica;writing-mode:lr-tb;fill:#000000;fill-opacity:1;fill-rule:nonzero;stroke:none"
         id="text760"><tspan
           x="0"
           y="0"
           id="tspan762"
           style="fill:#000000">7</tspan></text>
</g><g
       id="g764" /><g
       id="g766"
       style="stroke:#000000"><path
         d="m 33.46,46.81 2.99,0"
         style="fill:none;stroke:#000000;stroke-width:1.07000005;stroke-linecap:butt;stroke-linejoin:round;stroke-miterlimit:10;stroke-dasharray:none;stroke-opacity:1"
         id="path768"
         inkscape:connector-curvature="0" /><path
         d="m 33.46,64.91 2.99,0"
         style="fill:none;stroke:#000000;stroke-width:1.07000005;stroke-linecap:butt;stroke-linejoin:round;stroke-miterlimit:10;stroke-dasharray:none;stroke-opacity:1"
         id="path770"
         inkscape:connector-curvature="0" /><path
         d="m 33.46,83.01 2.99,0"
         style="fill:none;stroke:#000000;stroke-width:1.07000005;stroke-linecap:butt;stroke-linejoin:round;stroke-miterlimit:10;stroke-dasharray:none;stroke-opacity:1"
         id="path772"
         inkscape:connector-curvature="0" /><path
         d="m 33.46,101.11 2.99,0"
         style="fill:none;stroke:#000000;stroke-width:1.07000005;stroke-linecap:butt;stroke-linejoin:round;stroke-miterlimit:10;stroke-dasharray:none;stroke-opacity:1"
         id="path774"
         inkscape:connector-curvature="0" /><path
         d="m 33.46,119.21 2.99,0"
         style="fill:none;stroke:#000000;stroke-width:1.07000005;stroke-linecap:butt;stroke-linejoin:round;stroke-miterlimit:10;stroke-dasharray:none;stroke-opacity:1"
         id="path776"
         inkscape:connector-curvature="0" /><path
         d="m 33.46,137.32 2.99,0"
         style="fill:none;stroke:#000000;stroke-width:1.07000005;stroke-linecap:butt;stroke-linejoin:round;stroke-miterlimit:10;stroke-dasharray:none;stroke-opacity:1"
         id="path778"
         inkscape:connector-curvature="0" /></g><g
       id="g780" /><g
       id="g782" /><g
       id="g784" /><g
       id="g786" /><g
       id="g788" /><g
       id="g790" /><g
       id="g792" /><g
       id="g794" /><g
       id="g796" /><g
       id="g798" /><g
       id="g800" /><g
       id="g802"
       style="fill:#000000"><text
         transform="matrix(1,0,0,-1,108.45,5.98)"
         style="font-variant:normal;font-weight:normal;font-size:12px;font-family:Helvetica;-inkscape-font-specification:Helvetica;writing-mode:lr-tb;fill:#000000;fill-opacity:1;fill-rule:nonzero;stroke:none"
         id="text804"><tspan
           sodipodi:role="line"
           id="tspan806"
           x="0"
           y="0">chao1</tspan></text>
</g><g
       id="g808" /><g
       id="g810"
       transform="translate(4.1212941,-113.70072)"><text
         transform="matrix(0,1,1,0,14.59,187.43)"
         style="font-variant:normal;font-weight:normal;font-size:12px;font-family:Helvetica;-inkscape-font-specification:Helvetica;writing-mode:lr-tb;fill:#000000;fill-opacity:1;fill-rule:nonzero;stroke:none"
         id="text812"><tspan
           sodipodi:role="line"
           id="tspan814"
           x="0"
           y="0">sCD14</tspan></text>
</g><g
       id="g816" /><g
       id="g818" /><g
       id="g820" /><g
       id="g822" /><g
       id="g824" /><g
       id="g826" /><g
       id="g828" /><g
       id="g834" /><g
       id="g842" /><g
       id="g848" /><g
       id="g854" /><g
       id="g860" /><g
       id="g866" /><g
       id="g872" /><g
       id="g878" /><g
       id="g884" /><g
       id="g890" /><g
       id="g896" /><g
       id="g904" /><g
       id="g912" /><g
       id="g920" /><g
       id="g922" /><g
       id="g924" /><g
       id="g926" /><g
       id="g928" /><g
       id="g936" /><g
       id="g938" /><g
       id="g940" /><g
       id="g942" /><g
       id="g5540"
       transform="translate(0,3.1999817)"><path
         d="m 35.915,183.98567 13.83,0"
         style="fill:none;stroke:#000000;stroke-width:2.13000011;stroke-linecap:butt;stroke-linejoin:round;stroke-miterlimit:10;stroke-dasharray:none;stroke-opacity:1"
         id="path852"
         inkscape:connector-curvature="0" /><path
         d="m 40.875,183.98067 c 0,1.08 0.88,1.96 1.95,1.96 1.08,0 1.96,-0.88 1.96,-1.96 0,-1.07 -0.88,-1.95 -1.96,-1.95 -1.07,0 -1.95,0.88 -1.95,1.95"
         style="fill:none;stroke:#000000;stroke-width:0.70999998;stroke-linecap:round;stroke-linejoin:round;stroke-miterlimit:10;stroke-dasharray:none;stroke-opacity:1"
         id="path858"
         inkscape:connector-curvature="0" /><text
         y="-180.34067"
         x="53.625004"
         transform="scale(1,-1)"
         style="font-variant:normal;font-weight:normal;font-size:10px;font-family:Helvetica;-inkscape-font-specification:Helvetica;writing-mode:lr-tb;fill:#000000;fill-opacity:1;fill-rule:nonzero;stroke:none"
         id="text900"><tspan
           x="53.625004 60.295002 63.075001"
           y="-180.34067"
           sodipodi:role="line"
           id="tspan902">AIH: R=-0.48; P&lt;0.001</tspan></text>
</g><g
       id="g5550"
       transform="translate(0,1.5999921)"><g
         id="g5546"><path
           inkscape:connector-curvature="0"
           id="path870"
           style="fill:none;stroke:#00c094;stroke-width:2.13000011;stroke-linecap:butt;stroke-linejoin:round;stroke-miterlimit:10;stroke-dasharray:none;stroke-opacity:1"
           d="m 35.915,174.55178 13.83,0" /><path
           inkscape:connector-curvature="0"
           id="path876"
           style="fill:none;stroke:#00c094;stroke-width:0.70999998;stroke-linecap:round;stroke-linejoin:round;stroke-miterlimit:10;stroke-dasharray:none;stroke-opacity:1"
           d="m 40.875,174.54678 c 0,1.08 0.88,1.96 1.95,1.96 1.08,0 1.96,-0.88 1.96,-1.96 0,-1.07 -0.88,-1.95 -1.96,-1.95 -1.07,0 -1.95,0.88 -1.95,1.95" /></g><text
         y="-171.99678"
         x="53.625"
         transform="scale(1,-1)"
         style="font-variant:normal;font-weight:normal;font-size:10px;font-family:Helvetica;-inkscape-font-specification:Helvetica;writing-mode:lr-tb;fill:#000000;fill-opacity:1;fill-rule:nonzero;stroke:none"
         id="text908"><tspan
           sodipodi:role="line"
           id="tspan910"
           x="53.625"
           y="-171.99678">healthy</tspan></text>
</g><g
       id="g5557"
       transform="translate(0,1.0375977e-5)"><g
         transform="translate(-203.975,-13.652105)"
         id="g886"><path
           inkscape:connector-curvature="0"
           id="path888"
           style="fill:none;stroke:#7f7f7f;stroke-width:2.13000011;stroke-linecap:butt;stroke-linejoin:round;stroke-miterlimit:10;stroke-dasharray:none;stroke-opacity:1"
           d="m 239.89,177.68 13.83,0" /></g><g
         transform="translate(-203.975,-13.657105)"
         id="g892"><path
           inkscape:connector-curvature="0"
           id="path894"
           style="fill:none;stroke:#7f7f7f;stroke-width:0.70999998;stroke-linecap:round;stroke-linejoin:round;stroke-miterlimit:10;stroke-dasharray:none;stroke-opacity:1"
           d="m 244.85,177.68 c 0,1.08 0.88,1.96 1.95,1.96 1.08,0 1.96,-0.88 1.96,-1.96 0,-1.07 -0.88,-1.95 -1.96,-1.95 -1.07,0 -1.95,0.88 -1.95,1.95" /></g><text
         y="-161.47289"
         x="53.625"
         transform="scale(1,-1)"
         style="font-variant:normal;font-weight:normal;font-size:10px;font-family:Helvetica;-inkscape-font-specification:Helvetica;writing-mode:lr-tb;fill:#000000;fill-opacity:1;fill-rule:nonzero;stroke:none"
         id="text916"><tspan
           sodipodi:role="line"
           id="tspan918"
           x="53.625"
           y="-161.47289">non-AIH hep. control:</tspan></text>
</g><g
       id="g5565"
       transform="translate(0,-1.5999988)"><path
         d="m 35.915,153.50401 13.83,0"
         style="fill:none;stroke:#000000;stroke-width:1;stroke-linecap:butt;stroke-linejoin:round;stroke-miterlimit:4;stroke-dasharray:4, 1;stroke-dashoffset:0;stroke-opacity:1"
         id="path888-5"
         inkscape:connector-curvature="0" /><text
         y="-150.94901"
         x="53.625"
         transform="scale(1,-1)"
         style="font-variant:normal;font-weight:normal;font-size:10px;font-family:Helvetica;-inkscape-font-specification:Helvetica;writing-mode:lr-tb;fill:#000000;fill-opacity:1;fill-rule:nonzero;stroke:none"
         id="text916-2"><tspan
           sodipodi:role="line"
           id="tspan918-9"
           x="53.625"
           y="-150.94901">all samples: R=-0.55; P&lt;0.05</tspan></text>
</g></g></svg>